<?xml version="1.0" encoding="UTF-8" standalone="no"?>
<!-- Generator: Adobe Illustrator 18.1.0, SVG Export Plug-In . SVG Version: 6.00 Build 0)  -->

<svg
   xmlns:dc="http://purl.org/dc/elements/1.1/"
   xmlns:cc="http://creativecommons.org/ns#"
   xmlns:rdf="http://www.w3.org/1999/02/22-rdf-syntax-ns#"
   xmlns:svg="http://www.w3.org/2000/svg"
   xmlns="http://www.w3.org/2000/svg"
   xmlns:sodipodi="http://sodipodi.sourceforge.net/DTD/sodipodi-0.dtd"
   xmlns:inkscape="http://www.inkscape.org/namespaces/inkscape"
   version="1.1"
   id="Code"
   x="0px"
   y="0px"
   viewBox="0 0 15 15"
   enable-background="new 0 0 20 20"
   xml:space="preserve"
   inkscape:version="0.91 r13725"
   sodipodi:docname="code_small.svg"
   width="15"
   height="15"><metadata
     id="metadata9"><rdf:RDF><cc:Work
         rdf:about=""><dc:format>image/svg+xml</dc:format><dc:type
           rdf:resource="http://purl.org/dc/dcmitype/StillImage" /><dc:title></dc:title></cc:Work></rdf:RDF></metadata><defs
     id="defs7" /><sodipodi:namedview
     pagecolor="#ffffff"
     bordercolor="#666666"
     borderopacity="1"
     objecttolerance="10"
     gridtolerance="10"
     guidetolerance="10"
     inkscape:pageopacity="0"
     inkscape:pageshadow="2"
     inkscape:window-width="1680"
     inkscape:window-height="987"
     id="namedview5"
     showgrid="false"
     inkscape:zoom="11.8"
     inkscape:cx="10"
     inkscape:cy="10"
     inkscape:window-x="-8"
     inkscape:window-y="22"
     inkscape:window-maximized="1"
     inkscape:current-layer="Code" /><path
     d="m 4.296183,11.042402 c -0.1760004,0 -0.3534922,-0.0619 -0.4951874,-0.187933 L 0.0274295,7.5000227 4.0105554,3.9591349 C 4.3178102,3.686931 4.789133,3.7130326 5.0628284,4.0210332 5.3365238,4.3290338 5.3089306,4.8003567 5.00093,5.0740521 L 2.2721794,7.5000227 4.7913703,9.7388061 c 0.3080006,0.2736949 0.3355939,0.7450189 0.061899,1.0530189 -0.1469156,0.166306 -0.3520007,0.250577 -0.5570858,0.250577 z m 6.670859,-0.0015 3.983126,-3.5408874 -3.773566,-3.3544468 c -0.308,-0.2736954 -0.779323,-0.2461022 -1.052273,0.061898 -0.2736952,0.3080005 -0.2461022,0.7793235 0.0619,1.053019 l 2.519191,2.2395294 -2.7287506,2.425225 c -0.3080023,0.2736998 -0.3355953,0.7450228 -0.061901,1.0530238 0.1469163,0.166305 0.3520013,0.250576 0.5570863,0.250576 0.176,0 0.353492,-0.0619 0.495187,-0.187932 z M 7.478358,12.097657 8.9698864,3.1484893 C 9.0377507,2.7420475 8.7633096,2.3579791 8.356868,2.2901145 7.9489356,2.2215042 7.5656123,2.4966912 7.4992394,2.9031326 L 6.0077109,11.852301 c -0.067864,0.406442 0.2065769,0.79051 0.6130185,0.858375 0.041763,0.0067 0.082033,0.0097 0.1230519,0.0097 0.3579667,0 0.67417,-0.258781 0.7345767,-0.622713 z"
     id="path3"
     inkscape:connector-curvature="0"
     style="fill:#808080" /></svg>