<?xml version="1.0" encoding="UTF-8" standalone="no"?>
<!-- Generator: Adobe Illustrator 18.1.0, SVG Export Plug-In . SVG Version: 6.00 Build 0)  -->

<svg
   xmlns:dc="http://purl.org/dc/elements/1.1/"
   xmlns:cc="http://creativecommons.org/ns#"
   xmlns:rdf="http://www.w3.org/1999/02/22-rdf-syntax-ns#"
   xmlns:svg="http://www.w3.org/2000/svg"
   xmlns="http://www.w3.org/2000/svg"
   xmlns:sodipodi="http://sodipodi.sourceforge.net/DTD/sodipodi-0.dtd"
   xmlns:inkscape="http://www.inkscape.org/namespaces/inkscape"
   version="1.1"
   id="Code"
   x="0px"
   y="0px"
   viewBox="0 0 26 26"
   enable-background="new 0 0 20 20"
   xml:space="preserve"
   inkscape:version="0.91 r13725"
   sodipodi:docname="code.svg"
   width="26"
   height="26"><metadata
     id="metadata9"><rdf:RDF><cc:Work
         rdf:about=""><dc:format>image/svg+xml</dc:format><dc:type
           rdf:resource="http://purl.org/dc/dcmitype/StillImage" /><dc:title></dc:title></cc:Work></rdf:RDF></metadata><defs
     id="defs7" /><sodipodi:namedview
     pagecolor="#ffffff"
     bordercolor="#666666"
     borderopacity="1"
     objecttolerance="10"
     gridtolerance="10"
     guidetolerance="10"
     inkscape:pageopacity="0"
     inkscape:pageshadow="2"
     inkscape:window-width="1680"
     inkscape:window-height="987"
     id="namedview5"
     showgrid="false"
     inkscape:zoom="11.8"
     inkscape:cx="10"
     inkscape:cy="10"
     inkscape:window-x="-8"
     inkscape:window-y="22"
     inkscape:window-maximized="1"
     inkscape:current-layer="Code" /><path
     d="m 7.449218,19.158934 c -0.3059998,0 -0.6145926,-0.107619 -0.8609483,-0.326746 L 0.0274295,13.000042 6.9526168,6.8437436 C 7.4868196,6.3704814 8.3062763,6.4158626 8.7821317,6.951362 9.2579871,7.4868615 9.2100126,8.3063182 8.6745132,8.7821736 l -4.7442913,4.2178684 4.3799442,3.892419 c 0.5354994,0.475855 0.583474,1.295313 0.1076186,1.830812 -0.255432,0.289144 -0.6119994,0.435661 -0.9685667,0.435661 z m 11.598165,-0.0026 6.925187,-6.156298 -6.56084,-5.8321462 C 18.876231,6.6920343 18.056774,6.7400088 17.582215,7.2755082 17.10636,7.8110076 17.154334,8.6304644 17.689833,9.10632 l 4.379945,3.893716 -4.744292,4.216572 c -0.535499,0.475855 -0.583473,1.295311 -0.107619,1.830811 0.255433,0.289144 0.612,0.43566 0.968567,0.43566 0.306,0 0.614593,-0.107618 0.860949,-0.326745 z m -6.065536,1.8373 2.593218,-15.5593042 C 15.693056,4.7276775 15.215904,4.0599241 14.509252,3.9419327 13.800008,3.8226447 13.13355,4.3010933 13.018152,5.007745 L 10.424934,20.56705 c -0.117991,0.706652 0.359161,1.374406 1.065813,1.492397 0.07261,0.01167 0.142626,0.01686 0.213942,0.01686 0.622372,0 1.172133,-0.449924 1.277158,-1.082669 z"
     id="path3"
     inkscape:connector-curvature="0" /></svg>