<?xml version="1.0" encoding="UTF-8" standalone="no"?>
<!-- Generator: Adobe Illustrator 18.1.1, SVG Export Plug-In . SVG Version: 6.00 Build 0)  -->

<svg
   xmlns:dc="http://purl.org/dc/elements/1.1/"
   xmlns:cc="http://creativecommons.org/ns#"
   xmlns:rdf="http://www.w3.org/1999/02/22-rdf-syntax-ns#"
   xmlns:svg="http://www.w3.org/2000/svg"
   xmlns="http://www.w3.org/2000/svg"
   xmlns:sodipodi="http://sodipodi.sourceforge.net/DTD/sodipodi-0.dtd"
   xmlns:inkscape="http://www.inkscape.org/namespaces/inkscape"
   version="1.1"
   id="Github_w_x2F__circle"
   x="0px"
   y="0px"
   viewBox="0 0 15 15"
   enable-background="new 0 0 20 20"
   xml:space="preserve"
   inkscape:version="0.91 r13725"
   sodipodi:docname="github_circle_small.svg"
   width="15"
   height="15"><metadata
     id="metadata9"><rdf:RDF><cc:Work
         rdf:about=""><dc:format>image/svg+xml</dc:format><dc:type
           rdf:resource="http://purl.org/dc/dcmitype/StillImage" /><dc:title></dc:title></cc:Work></rdf:RDF></metadata><defs
     id="defs7" /><sodipodi:namedview
     pagecolor="#ffffff"
     bordercolor="#666666"
     borderopacity="1"
     objecttolerance="10"
     gridtolerance="10"
     guidetolerance="10"
     inkscape:pageopacity="0"
     inkscape:pageshadow="2"
     inkscape:window-width="1680"
     inkscape:window-height="987"
     id="namedview5"
     showgrid="false"
     inkscape:zoom="11.8"
     inkscape:cx="10"
     inkscape:cy="10"
     inkscape:window-x="-8"
     inkscape:window-y="22"
     inkscape:window-maximized="1"
     inkscape:current-layer="Github_w_x2F__circle" /><path
     d="m 7.5535328,7.4196833 c 0,0 -0.00744,0 -0.01116,0 l -0.01116,0 c -0.8861006,0 -1.6665536,-0.2254312 -2.1285759,0.1993912 -0.2760229,0.254447 -0.3920865,0.5609739 -0.3920865,0.8905646 0,1.3778828 1.1033478,1.5475139 2.5214064,1.5475139 l 0.021576,0 c 1.4173147,0 2.5214062,-0.1703751 2.5214062,-1.5475139 0,-0.3295907 -0.1160633,-0.6368616 -0.3920862,-0.8905646 C 9.2200865,7.1942521 8.4396335,7.4196833 7.5535328,7.4196833 Z M 6.3467694,9.3027401 c -0.270071,0 -0.4880621,-0.3035508 -0.4880621,-0.6770374 0,-0.3734866 0.2179911,-0.6755495 0.4880621,-0.6755495 0.270071,0 0.4888062,0.3020629 0.4888062,0.6755495 7.44e-4,0.3734866 -0.2179912,0.6770374 -0.4888062,0.6770374 z m 2.3904629,0 c -0.2700709,0 -0.4888061,-0.3035508 -0.4888061,-0.6770374 0,-0.3734866 0.2187352,-0.6755495 0.4888061,-0.6755495 0.269327,0 0.4880622,0.3020629 0.4880622,0.6755495 7.44e-4,0.3734866 -0.2179912,0.6770374 -0.4880622,0.6770374 z M 7.5423729,0.31525424 C 3.5976999,0.31525424 0.4,3.5129541 0.4,7.4576271 0.4,11.4023 3.5976999,14.6 7.5423729,14.6 c 3.9446731,0 7.1423731,-3.1977 7.1423731,-7.1423729 0,-3.944673 -3.1977,-7.14237286 -7.1423731,-7.14237286 z M 8.1941144,10.388232 c -0.1279675,0 -0.3824145,0 -0.6517415,0.0015 -0.269327,-0.0015 -0.523774,-0.0015 -0.6517415,-0.0015 -0.5654379,0 -2.8063574,-0.0439 -2.8063574,-2.7446056 0,-0.6204936 0.2127832,-1.0750759 0.5617179,-1.4545145 -0.055056,-0.1368954 -0.058032,-0.9166045 0.2380791,-1.6635776 0,0 0.6815014,0.0744 1.7119375,0.781941 0.2150152,-0.060264 0.5810618,-0.090768 0.9463644,-0.090768 0.3653026,0 0.7306052,0.030504 0.9471084,0.090024 1.0304361,-0.7075413 1.7119377,-0.781941 1.7119377,-0.781941 0.296111,0.7469731 0.293879,1.5274262 0.238079,1.6635776 0.348935,0.3794386 0.561718,0.8340209 0.561718,1.4545145 -7.44e-4,2.7021976 -2.2416637,2.7453496 -2.8071016,2.7453496 z"
     id="path3"
     inkscape:connector-curvature="0"
     style="fill:#808080" /></svg>