<?xml version="1.0" encoding="UTF-8" standalone="no"?>
<!-- Generator: Adobe Illustrator 18.1.1, SVG Export Plug-In . SVG Version: 6.00 Build 0)  -->

<svg
   xmlns:dc="http://purl.org/dc/elements/1.1/"
   xmlns:cc="http://creativecommons.org/ns#"
   xmlns:rdf="http://www.w3.org/1999/02/22-rdf-syntax-ns#"
   xmlns:svg="http://www.w3.org/2000/svg"
   xmlns="http://www.w3.org/2000/svg"
   xmlns:sodipodi="http://sodipodi.sourceforge.net/DTD/sodipodi-0.dtd"
   xmlns:inkscape="http://www.inkscape.org/namespaces/inkscape"
   version="1.1"
   id="Github_w_x2F__circle"
   x="0px"
   y="0px"
   viewBox="0 0 26 26"
   enable-background="new 0 0 20 20"
   xml:space="preserve"
   inkscape:version="0.91 r13725"
   sodipodi:docname="github_circle.svg"
   width="26"
   height="26"><metadata
     id="metadata9"><rdf:RDF><cc:Work
         rdf:about=""><dc:format>image/svg+xml</dc:format><dc:type
           rdf:resource="http://purl.org/dc/dcmitype/StillImage" /><dc:title></dc:title></cc:Work></rdf:RDF></metadata><defs
     id="defs7" /><sodipodi:namedview
     pagecolor="#ffffff"
     bordercolor="#666666"
     borderopacity="1"
     objecttolerance="10"
     gridtolerance="10"
     guidetolerance="10"
     inkscape:pageopacity="0"
     inkscape:pageshadow="2"
     inkscape:window-width="1680"
     inkscape:window-height="987"
     id="namedview5"
     showgrid="false"
     inkscape:zoom="16.68772"
     inkscape:cx="11.428246"
     inkscape:cy="14.089806"
     inkscape:window-x="-8"
     inkscape:window-y="22"
     inkscape:window-maximized="1"
     inkscape:current-layer="Github_w_x2F__circle" /><path
     d="m 13.019681,12.933087 c 0,0 -0.01312,0 -0.01968,0 l -0.01968,0 c -1.562627,0 -2.938946,-0.397545 -3.7537175,0.351623 -0.4867629,0.448714 -0.6914396,0.989271 -0.6914396,1.5705 0,2.42988 1.9457401,2.729022 4.4464691,2.729022 l 0.03805,0 c 2.499416,0 4.446467,-0.300454 4.446467,-2.729022 0,-0.581229 -0.204675,-1.123098 -0.691438,-1.5705 -0.816083,-0.749168 -2.192402,-0.351623 -3.755029,-0.351623 z m -2.128112,3.320747 c -0.476267,0 -0.860692,-0.535308 -0.860692,-1.193946 0,-0.65864 0.384425,-1.191324 0.860692,-1.191324 0.476267,0 0.862003,0.532684 0.862003,1.191324 0.0013,0.658638 -0.384424,1.193946 -0.862003,1.193946 z m 4.215551,0 c -0.476267,0 -0.862003,-0.535308 -0.862003,-1.193946 0,-0.65864 0.385736,-1.191324 0.862003,-1.191324 0.474954,0 0.86069,0.532684 0.86069,1.191324 0.0013,0.658638 -0.384423,1.193946 -0.86069,1.193946 z M 13,0.40451538 C 6.0436189,0.40451538 0.4045155,6.0436189 0.4045155,13 0.4045155,19.956381 6.0436189,25.595485 13,25.595485 19.956381,25.595485 25.595485,19.956381 25.595485,13 25.595485,6.0436189 19.956382,0.40451538 13,0.40451538 Z M 14.149338,18.168085 c -0.225669,0 -0.674384,0 -1.149338,0.0026 -0.474955,-0.0026 -0.923668,-0.0026 -1.149338,-0.0026 -0.997143,0 -4.9489758,-0.07742 -4.9489758,-4.840078 0,-1.094231 0.3752405,-1.895883 0.9905824,-2.565017 -0.097091,-0.241414 -0.1023387,-1.6164216 0.4198495,-2.933699 0,0 1.2018191,0.1312035 3.0189809,1.3789431 C 11.710274,9.1019663 12.355793,9.0481623 13,9.0481623 c 0.644206,0 1.288413,0.053786 1.670213,0.1587492 1.817161,-1.2477397 3.018981,-1.3789431 3.018981,-1.3789431 0.522188,1.3172774 0.518252,2.6935966 0.419849,2.9336996 0.615342,0.669134 0.990583,1.470785 0.990583,2.565017 -0.0013,4.765292 -3.953146,4.84139 -4.950288,4.84139 z"
     id="path3"
     inkscape:connector-curvature="0"
     style="fill:#000000" /></svg>