<?xml version="1.0" encoding="UTF-8" standalone="no"?>
<!-- Generator: Adobe Illustrator 18.1.1, SVG Export Plug-In . SVG Version: 6.00 Build 0)  -->

<svg
   xmlns:dc="http://purl.org/dc/elements/1.1/"
   xmlns:cc="http://creativecommons.org/ns#"
   xmlns:rdf="http://www.w3.org/1999/02/22-rdf-syntax-ns#"
   xmlns:svg="http://www.w3.org/2000/svg"
   xmlns="http://www.w3.org/2000/svg"
   xmlns:sodipodi="http://sodipodi.sourceforge.net/DTD/sodipodi-0.dtd"
   xmlns:inkscape="http://www.inkscape.org/namespaces/inkscape"
   version="1.1"
   id="Github"
   x="0px"
   y="0px"
   viewBox="0 0 15 15"
   enable-background="new 0 0 20 20"
   xml:space="preserve"
   inkscape:version="0.91 r13725"
   sodipodi:docname="github_small.svg"
   width="15"
   height="15"><metadata
     id="metadata9"><rdf:RDF><cc:Work
         rdf:about=""><dc:format>image/svg+xml</dc:format><dc:type
           rdf:resource="http://purl.org/dc/dcmitype/StillImage" /><dc:title></dc:title></cc:Work></rdf:RDF></metadata><defs
     id="defs7" /><sodipodi:namedview
     pagecolor="#ffffff"
     bordercolor="#666666"
     borderopacity="1"
     objecttolerance="10"
     gridtolerance="10"
     guidetolerance="10"
     inkscape:pageopacity="0"
     inkscape:pageshadow="2"
     inkscape:window-width="955"
     inkscape:window-height="480"
     id="namedview5"
     showgrid="false"
     inkscape:zoom="11.8"
     inkscape:cx="9.7211758"
     inkscape:cy="7.1397602"
     inkscape:window-x="0"
     inkscape:window-y="0"
     inkscape:window-maximized="0"
     inkscape:current-layer="Github" /><path
     d="m 9.7125944,8.4107778 c -0.4995732,0 -0.9045198,0.561498 -0.9045198,1.2517162 0,0.69161 0.4049466,1.253108 0.9045198,1.253108 0.4995736,0 0.9045196,-0.561498 0.9045196,-1.253108 C 10.616418,8.9722758 10.212168,8.4107778 9.7125944,8.4107778 Z M 12.861715,5.1524193 c 0.103672,-0.2539614 0.107846,-1.6970182 -0.441823,-3.079542 0,0 -1.260066,0.1384611 -3.1665153,1.4472317 C 8.8533006,3.4087834 8.1763023,3.3545123 7.5006956,3.3545123 c -0.6769982,0 -1.3533007,0.054271 -1.7533767,0.1655967 C 3.8401737,2.2113384 2.5801081,2.0728773 2.5801081,2.0728773 2.0311342,3.455401 2.0367004,4.8984579 2.1389807,5.1524193 1.4932928,5.85377 1.098783,6.6963649 1.098783,7.8458008 c 0,4.9999072 4.1489626,5.0799222 5.1954224,5.0799222 0.2379583,0 0.7083086,0.0014 1.2064902,0.0014 0.4974859,0 0.968532,-0.0014 1.2050987,-0.0014 1.0478514,0 5.1954227,-0.08001 5.1954227,-5.0799222 0,-1.1494359 -0.393814,-1.9920308 -1.039502,-2.6933815 z m -5.3422332,7.1589267 -0.038964,0 C 4.8567147,12.311346 2.8125,11.998939 2.8125,9.4481924 2.8125,8.836598 3.0281932,8.2702293 3.5409863,7.7998791 4.3947138,7.01573 5.8405539,7.4304175 7.4805178,7.4304175 c 0.00696,0 0.013916,0 0.020178,0 0.00696,0 0.012524,0 0.018786,0 1.639964,0 3.0865002,-0.4146875 3.9409232,0.3694616 0.511401,0.4703502 0.727095,1.0367189 0.727095,1.6483134 0,2.5507465 -2.043519,2.8631535 -4.6680182,2.8631535 z M 5.2881011,8.4107778 c -0.4995732,0 -0.9045198,0.561498 -0.9045198,1.2517162 0,0.69161 0.4049466,1.253108 0.9045198,1.253108 0.500269,0 0.9052156,-0.561498 0.9052156,-1.253108 0,-0.6902182 -0.4049466,-1.2517162 -0.9052156,-1.2517162 z"
     id="path3"
     style="fill:#808080"
     inkscape:connector-curvature="0" /></svg>