<?xml version="1.0" encoding="UTF-8" standalone="no"?>
<!-- Generator: Adobe Illustrator 18.1.1, SVG Export Plug-In . SVG Version: 6.00 Build 0)  -->

<svg
   xmlns:dc="http://purl.org/dc/elements/1.1/"
   xmlns:cc="http://creativecommons.org/ns#"
   xmlns:rdf="http://www.w3.org/1999/02/22-rdf-syntax-ns#"
   xmlns:svg="http://www.w3.org/2000/svg"
   xmlns="http://www.w3.org/2000/svg"
   xmlns:sodipodi="http://sodipodi.sourceforge.net/DTD/sodipodi-0.dtd"
   xmlns:inkscape="http://www.inkscape.org/namespaces/inkscape"
   version="1.1"
   id="Github"
   x="0px"
   y="0px"
   viewBox="0 0 26 26"
   enable-background="new 0 0 20 20"
   xml:space="preserve"
   inkscape:version="0.91 r13725"
   sodipodi:docname="github.svg"
   width="26"
   height="26"><metadata
     id="metadata9"><rdf:RDF><cc:Work
         rdf:about=""><dc:format>image/svg+xml</dc:format><dc:type
           rdf:resource="http://purl.org/dc/dcmitype/StillImage" /><dc:title></dc:title></cc:Work></rdf:RDF></metadata><defs
     id="defs7" /><sodipodi:namedview
     pagecolor="#ffffff"
     bordercolor="#666666"
     borderopacity="1"
     objecttolerance="10"
     gridtolerance="10"
     guidetolerance="10"
     inkscape:pageopacity="0"
     inkscape:pageshadow="2"
     inkscape:window-width="1680"
     inkscape:window-height="987"
     id="namedview5"
     showgrid="false"
     inkscape:zoom="16.68772"
     inkscape:cx="6.5780925"
     inkscape:cy="15.682365"
     inkscape:window-x="-8"
     inkscape:window-y="22"
     inkscape:window-maximized="1"
     inkscape:current-layer="Github" /><path
     d="m 17.128544,14.699453 c -0.932168,0 -1.68777,1.047715 -1.68777,2.335613 0,1.290495 0.755602,2.33821 1.68777,2.33821 0.932168,0 1.687769,-1.047715 1.687769,-2.33821 -0.0013,-1.287898 -0.755601,-2.335613 -1.687769,-2.335613 z m 5.876034,-6.0798659 c 0.193445,-0.4738732 0.201233,-3.1665148 -0.82441,-5.7462062 0,0 -2.351193,0.2583584 -5.908492,2.7004319 -0.746513,-0.2077264 -2.009744,-0.3089922 -3.270378,-0.3089922 -1.26323,0 -2.525163,0.1012639 -3.271676,0.3089922 C 6.1710248,3.1317393 3.8198321,2.8733809 3.8198321,2.8733809 2.7954859,5.4530723 2.8058721,8.1457139 2.9967198,8.619587 1.7919122,9.928258 1.055785,11.50048 1.055785,13.645246 c 0,9.32947 7.7416688,9.478773 9.694288,9.478773 0.444013,0 1.321654,0.0026 2.251225,0.0026 0.928273,0 1.807212,-0.0026 2.248628,-0.0026 1.955216,0 9.694289,-0.149293 9.694289,-9.478773 0,-2.144766 -0.734829,-3.7169879 -1.939637,-5.0256589 z m -9.968226,13.3580479 -0.0727,0 c -4.8958301,0 -8.7101891,-0.582929 -8.7101891,-5.342442 0,-1.14119 0.4024681,-2.197995 1.3593035,-3.075634 1.5929948,-1.463166 4.2908294,-0.68939 7.3508856,-0.68939 0.01299,0 0.02597,0 0.03765,0 0.01299,0 0.02337,0 0.03505,0 3.060056,0 5.759189,-0.773776 7.353482,0.68939 0.954238,0.877639 1.356707,1.934444 1.356707,3.075634 0,4.759513 -3.813061,5.342442 -8.710189,5.342442 z M 8.8727542,14.699453 c -0.932168,0 -1.6877695,1.047715 -1.6877695,2.335613 0,1.290495 0.7556015,2.33821 1.6877695,2.33821 0.9334664,0 1.6890678,-1.047715 1.6890678,-2.33821 0,-1.287898 -0.7556014,-2.335613 -1.6890678,-2.335613 z"
     id="path3"
     style="fill:#000000"
     inkscape:connector-curvature="0" /></svg>