<?xml version="1.0" encoding="UTF-8" standalone="no"?>
<!-- Generator: Adobe Illustrator 18.1.1, SVG Export Plug-In . SVG Version: 6.00 Build 0)  -->

<svg
   xmlns:dc="http://purl.org/dc/elements/1.1/"
   xmlns:cc="http://creativecommons.org/ns#"
   xmlns:rdf="http://www.w3.org/1999/02/22-rdf-syntax-ns#"
   xmlns:svg="http://www.w3.org/2000/svg"
   xmlns="http://www.w3.org/2000/svg"
   xmlns:sodipodi="http://sodipodi.sourceforge.net/DTD/sodipodi-0.dtd"
   xmlns:inkscape="http://www.inkscape.org/namespaces/inkscape"
   version="1.1"
   id="Vimeo_w_x2F__circle"
   x="0px"
   y="0px"
   viewBox="0 0 15 15"
   enable-background="new 0 0 20 20"
   xml:space="preserve"
   inkscape:version="0.91 r13725"
   sodipodi:docname="vimeo_circle_small.svg"
   width="15"
   height="15"><metadata
     id="metadata9"><rdf:RDF><cc:Work
         rdf:about=""><dc:format>image/svg+xml</dc:format><dc:type
           rdf:resource="http://purl.org/dc/dcmitype/StillImage" /><dc:title></dc:title></cc:Work></rdf:RDF></metadata><defs
     id="defs7" /><sodipodi:namedview
     pagecolor="#ffffff"
     bordercolor="#666666"
     borderopacity="1"
     objecttolerance="10"
     gridtolerance="10"
     guidetolerance="10"
     inkscape:pageopacity="0"
     inkscape:pageshadow="2"
     inkscape:window-width="1680"
     inkscape:window-height="987"
     id="namedview5"
     showgrid="false"
     inkscape:zoom="23.6"
     inkscape:cx="13.463745"
     inkscape:cy="4.5390175"
     inkscape:window-x="-8"
     inkscape:window-y="22"
     inkscape:window-maximized="1"
     inkscape:current-layer="Vimeo_w_x2F__circle" /><path
     d="m 7.5,0.4 c -3.9212708,0 -7.1,3.1787292 -7.1,7.1 0,3.921271 3.1787292,7.1 7.1,7.1 3.921271,0 7.1,-3.178729 7.1,-7.1 0,-3.9212708 -3.178729,-7.1 -7.1,-7.1 z m 3.254906,5.7317708 C 10.379198,8.2883958 8.2787812,10.115906 7.6479167,10.533031 7.0163125,10.948677 6.4394375,10.365146 6.230875,9.9236146 5.99125,9.4192188 5.2745937,6.6894167 5.0867396,6.4623646 4.8988854,6.2360521 4.3353229,6.6894167 4.3353229,6.6894167 L 4.0624167,6.3240625 c 0,0 1.1441354,-1.3926354 2.014625,-1.5656979 0.923,-0.1848958 0.9215208,1.4429271 1.1433958,2.3474375 0.2152187,0.8749271 0.3594375,1.3748854 0.5465521,1.3748854 0.1878541,0 0.5465521,-0.4866458 0.9385312,-1.2351042 C 9.0989792,6.497125 8.68925,5.8359375 7.9208229,6.3063125 8.22775,4.4277708 11.130615,3.9751458 10.754906,6.1317708 Z"
     id="path3"
     style="fill:#808080"
     inkscape:connector-curvature="0" /></svg>