<?xml version="1.0" encoding="UTF-8" standalone="no"?>
<!-- Generator: Adobe Illustrator 18.1.1, SVG Export Plug-In . SVG Version: 6.00 Build 0)  -->

<svg
   xmlns:dc="http://purl.org/dc/elements/1.1/"
   xmlns:cc="http://creativecommons.org/ns#"
   xmlns:rdf="http://www.w3.org/1999/02/22-rdf-syntax-ns#"
   xmlns:svg="http://www.w3.org/2000/svg"
   xmlns="http://www.w3.org/2000/svg"
   xmlns:sodipodi="http://sodipodi.sourceforge.net/DTD/sodipodi-0.dtd"
   xmlns:inkscape="http://www.inkscape.org/namespaces/inkscape"
   version="1.1"
   id="Vimeo_w_x2F__circle"
   x="0px"
   y="0px"
   viewBox="0 0 26 26"
   enable-background="new 0 0 20 20"
   xml:space="preserve"
   inkscape:version="0.91 r13725"
   sodipodi:docname="vimeo_circle.svg"
   width="26"
   height="26"><metadata
     id="metadata9"><rdf:RDF><cc:Work
         rdf:about=""><dc:format>image/svg+xml</dc:format><dc:type
           rdf:resource="http://purl.org/dc/dcmitype/StillImage" /><dc:title></dc:title></cc:Work></rdf:RDF></metadata><defs
     id="defs7" /><sodipodi:namedview
     pagecolor="#ffffff"
     bordercolor="#666666"
     borderopacity="1"
     objecttolerance="10"
     gridtolerance="10"
     guidetolerance="10"
     inkscape:pageopacity="0"
     inkscape:pageshadow="2"
     inkscape:window-width="1680"
     inkscape:window-height="987"
     id="namedview5"
     showgrid="false"
     inkscape:zoom="23.6"
     inkscape:cx="13.01883"
     inkscape:cy="14.708509"
     inkscape:window-x="-8"
     inkscape:window-y="22"
     inkscape:window-maximized="1"
     inkscape:current-layer="Vimeo_w_x2F__circle" /><path
     d="M 13,0.53983051 C 6.1183523,0.53983051 0.5398305,6.1183519 0.5398305,13 0.5398305,19.881648 6.1183523,25.460169 13,25.460169 19.881649,25.460169 25.460169,19.881648 25.460169,13 25.460169,6.1183519 19.881649,0.53983051 13,0.53983051 Z M 18.712209,10.598821 c -0.659351,3.784777 -4.345484,6.991972 -5.452622,7.724007 -1.108436,0.729439 -2.120824,-0.294631 -2.486842,-1.069497 C 10.352214,16.36814 9.0945155,11.577464 8.7648403,11.178998 8.435165,10.78183 7.446139,11.577464 7.446139,11.577464 L 6.9672013,10.936283 c 0,0 2.0079044,-2.444009 3.5355727,-2.7477248 1.619822,-0.3244839 1.617227,2.5322688 2.006606,4.1196418 0.377699,1.535457 0.630796,2.412861 0.959174,2.412861 0.329675,0 0.959173,-0.854041 1.647078,-2.167551 0.690502,-1.313509 -0.02855,-2.473864 -1.377108,-1.648377 0.538643,-3.2967519 5.633036,-4.0910877 4.973685,-0.306312 z"
     id="path3"
     style="fill:#000000"
     inkscape:connector-curvature="0" /></svg>