<?xml version="1.0" encoding="UTF-8" standalone="no"?>
<!-- Generator: Adobe Illustrator 18.1.1, SVG Export Plug-In . SVG Version: 6.00 Build 0)  -->

<svg
   xmlns:dc="http://purl.org/dc/elements/1.1/"
   xmlns:cc="http://creativecommons.org/ns#"
   xmlns:rdf="http://www.w3.org/1999/02/22-rdf-syntax-ns#"
   xmlns:svg="http://www.w3.org/2000/svg"
   xmlns="http://www.w3.org/2000/svg"
   xmlns:sodipodi="http://sodipodi.sourceforge.net/DTD/sodipodi-0.dtd"
   xmlns:inkscape="http://www.inkscape.org/namespaces/inkscape"
   version="1.1"
   id="Vimeo"
   x="0px"
   y="0px"
   viewBox="0 0 26 26"
   enable-background="new 0 0 20 20"
   xml:space="preserve"
   inkscape:version="0.91 r13725"
   sodipodi:docname="vimeo.svg"
   width="26"
   height="26"><metadata
     id="metadata9"><rdf:RDF><cc:Work
         rdf:about=""><dc:format>image/svg+xml</dc:format><dc:type
           rdf:resource="http://purl.org/dc/dcmitype/StillImage" /><dc:title></dc:title></cc:Work></rdf:RDF></metadata><defs
     id="defs7" /><sodipodi:namedview
     pagecolor="#ffffff"
     bordercolor="#666666"
     borderopacity="1"
     objecttolerance="10"
     gridtolerance="10"
     guidetolerance="10"
     inkscape:pageopacity="0"
     inkscape:pageshadow="2"
     inkscape:window-width="1680"
     inkscape:window-height="987"
     id="namedview5"
     showgrid="false"
     inkscape:zoom="16.68772"
     inkscape:cx="12.217811"
     inkscape:cy="23.647293"
     inkscape:window-x="-8"
     inkscape:window-y="22"
     inkscape:window-maximized="1"
     inkscape:current-layer="Vimeo" /><path
     d="M 25.144382,7.3303874 C 23.773219,15.198898 16.114608,21.859805 13.811164,23.382261 11.507719,24.901987 9.4046335,22.773005 8.642725,21.159232 7.7690517,19.323292 5.1548469,9.3612357 4.4692657,8.5366288 3.7836843,7.7106613 1.7296663,9.3612357 1.7296663,9.3612357 L 0.73332441,8.0309613 c 0,0 4.17209629,-5.0771169 7.34785079,-5.7122691 3.3665728,-0.6719513 3.3611208,5.2665736 4.1707338,8.5622708 0.782353,3.19211 1.309828,5.015784 1.994047,5.015784 0.684218,0 1.992684,-1.778695 3.423817,-4.504665 1.435223,-2.7314202 -0.06133,-5.141178 -2.86363,-3.4265424 1.121736,-6.8517244 11.709401,-8.49957399 10.338239,-0.6351522 z"
     id="path3"
     inkscape:connector-curvature="0"
     style="fill:#000000" /></svg>