<?xml version="1.0" encoding="UTF-8" standalone="no"?>
<!-- Generator: Adobe Illustrator 18.1.1, SVG Export Plug-In . SVG Version: 6.00 Build 0)  -->

<svg
   xmlns:dc="http://purl.org/dc/elements/1.1/"
   xmlns:cc="http://creativecommons.org/ns#"
   xmlns:rdf="http://www.w3.org/1999/02/22-rdf-syntax-ns#"
   xmlns:svg="http://www.w3.org/2000/svg"
   xmlns="http://www.w3.org/2000/svg"
   xmlns:sodipodi="http://sodipodi.sourceforge.net/DTD/sodipodi-0.dtd"
   xmlns:inkscape="http://www.inkscape.org/namespaces/inkscape"
   version="1.1"
   id="Vimeo"
   x="0px"
   y="0px"
   viewBox="0 0 15 15"
   enable-background="new 0 0 20 20"
   xml:space="preserve"
   inkscape:version="0.91 r13725"
   sodipodi:docname="vimeo_small.svg"
   width="15"
   height="15"><metadata
     id="metadata9"><rdf:RDF><cc:Work
         rdf:about=""><dc:format>image/svg+xml</dc:format><dc:type
           rdf:resource="http://purl.org/dc/dcmitype/StillImage" /><dc:title></dc:title></cc:Work></rdf:RDF></metadata><defs
     id="defs7" /><sodipodi:namedview
     pagecolor="#ffffff"
     bordercolor="#666666"
     borderopacity="1"
     objecttolerance="10"
     gridtolerance="10"
     guidetolerance="10"
     inkscape:pageopacity="0"
     inkscape:pageshadow="2"
     inkscape:window-width="1680"
     inkscape:window-height="987"
     id="namedview5"
     showgrid="false"
     inkscape:zoom="11.8"
     inkscape:cx="16.642019"
     inkscape:cy="5.0377748"
     inkscape:window-x="-8"
     inkscape:window-y="22"
     inkscape:window-maximized="1"
     inkscape:current-layer="Vimeo" /><path
     d="M 13.837676,4.5412522 C 13.12212,8.6475193 9.1253916,12.123585 7.9233145,12.918095 6.7212373,13.71118 5.6237195,12.600148 5.2261094,11.757983 4.7701736,10.799878 3.4059227,5.6010717 3.0481448,5.1707423 2.6903668,4.7397016 1.6184554,5.6010717 1.6184554,5.6010717 L 1.0985037,4.9068544 c 0,0 2.1772533,-2.6495487 3.8345549,-2.9810091 1.756882,-0.3506651 1.7540369,2.7484178 2.1765421,4.4683128 0.4082795,1.6658371 0.683548,2.6175408 1.0406147,2.6175408 0.3570667,0 1.0399035,-0.9282312 1.7867556,-2.3508077 C 10.685958,5.2354696 9.9049634,3.9779119 8.4425549,4.8727126 9.0279451,1.2970665 14.553232,0.43711897 13.837676,4.5412522 Z"
     id="path3"
     inkscape:connector-curvature="0"
     style="fill:#808080" /></svg>