<?xml version="1.0"?>
<svg xmlns="http://www.w3.org/2000/svg" height="390" width="292" xmlns:xlink="http://www.w3.org/1999/xlink" viewBox="0 0 29.2 39">
 <use xlink:href="#a" transform="matrix(-.2372 0 0 .2372 36.49 .1258)"/>
 <g id="b" transform="matrix(.2372 0 0 .2372 -20.93 .1258)">
  <g id="a">
   <path d="m136.6 37.66h-16.2l0.5-36.74 1.42-0.21627 1.28 1.2653 0.6 1.312 1.7 0.407 0.8 1.218v2.032l-1.7-0.219-1.1 0.781-0.2 1.313 1.5 1.437 1.6-0.77 0.8-1.667h1.1l0.9 0.781 0.4 1.706 1.7 0.33 0.9 2-0.7 1.78-1.2 0.56-1 0.06-0.9 1.66-2.1 0.53v-1.72l-0.7-1.16-1.4-0.06-1.2 1.22 0.1 2.81 0.5 1.72 1.9 2.03 3.1 0.63h3l1.8-0.25c0.7-0.67 1.7-2.36 1.7-2.36" nodetypes="cccccccccccccccccccccccccccccccccccc" fill="#fd0"/>
   <path id="z" d="m121.03 0.899c2.19 0 2.57 2.281 2.77 2.572 0.2 0.29 0.9 0.285 1.2 0.358 0.5 0.155 0.8 0.496 1.1 0.856 0.2 0.309 0.3 0.766 0.2 1.798-0.1-0.039-0.6-0.259-0.9-0.224-0.4 0.046-0.7 0.077-1.1 0.338-0.6 0.373-0.7 0.574-0.9 1.009-0.2 0.472-0.3 1.207 0.1 1.658 0.3 0.538 0.3 0.458 0.8 0.806 0.4 0.3 1 0.47 1.6 0.35 0.5-0.1 0.8-0.33 1.2-0.708 0.4-0.572 0.7-1.355 0.7-1.49 0.6-0.157 1.1 0.254 1.3 0.557 0.5 0.737 0.5 1.205 0.5 1.931 1.2-0.31 2.5 0.4 2.5 1.82 0 1.41-1.2 2.2-2.6 1.73 0 1.21-0.6 1.81-1.1 2.2-0.4 0.3-0.9 0.26-1.4 0.26 0.1-0.46 0.1-0.52 0.1-1.01-0.1-0.57-0.3-1.17-0.6-1.45s-0.9-0.62-1.5-0.45c-0.5 0.14-1.3 0.43-1.6 0.95-0.5 0.61-0.5 1.03-0.5 1.79 0 0.95 0.2 1.96 0.5 2.91s0.8 1.61 1.2 2.11c0.4 0.53 1.2 0.9 2 1.14 0.7 0.21 1.5 0.33 2.7 0.39s2 0.03 2.8 0c0.4-0.02 0.6-0.028 1.2-0.19 0.4-0.108 0.94-0.39 1.4-0.82 0.35-0.326 0.65-0.994 0.7-1.23 0.05-0.235 0.12-0.848 0.12-0.848s-0.62 0.778-0.92 1.068c-0.3 0.27-0.6 0.62-0.9 0.79-0.7 0.39-1.3 0.37-1.9 0.39-0.9 0.02-2.2 0-3.4-0.11-1.3-0.11-2.2-0.35-2.9-0.95-0.7-0.63-1.1-1.24-1.3-2.02-0.5-1.66-0.5-2.24-0.4-3.13 0.1-1.05 1.1-1.48 1.5-1.46s0.6 0.22 0.8 0.53c0.4 0.76 0.1 1.45 0.1 2.21 1.4 0.35 2 0.1 2.6-0.28 0.6-0.36 1.2-1.2 1.2-1.73 0.6 0.17 1.3-0.06 2-0.5 0.4-0.32 0.9-1.26 0.9-2.14 0-0.69-0.2-1.36-0.4-1.77-0.6-0.84-1.5-1.013-2.2-1.013 0-1.735-1.9-2.894-3.1-2.545 0.1 0.876-0.2 1.332-0.4 1.612-0.2 0.358-0.5 0.591-0.9 0.71-0.6 0.154-1-0.092-1.3-0.334-0.5-0.344-0.7-1.196-0.2-1.734 0.3-0.371 0.9-0.563 1.2-0.503 0.4 0.079 0.8 0.32 1 0.234 0.3-0.085 0.4-0.72 0.4-0.938 0.3-2.485-1-3.228-2.6-3.546-0.5-1.93-2.11-2.828-3.37-2.828"/>
   <circle cy="63.16" cx="-2.475" r="2.121" transform="matrix(.6211 0 0 .6211 129.9 -10.62)"/>
   <path d="m126.9 11.29v2.19h2.2v-2.19z" fill="#0098d4"/>
  </g>
  <use xlink:href="#a" transform="matrix(-1 0 0 1 271 0)"/>
  <g id="d">
   <use xlink:href="#a"/>
   <path stroke-linejoin="round" d="m135.5 13.5c-2.1 0-2.8 2.33-1.4 3.92-2.1-0.63-3.9 1.02-3 2.54 1.1 1.99 3.3 1.02 4.4-0.36 1.2 1.56 3.4 2.13 4.4 0.45 1.1-1.77-0.9-3.51-2.9-2.65 1.2-1.56 0.6-3.9-1.5-3.9z" stroke="#000" stroke-width=".81" fill="#0098d4"/>
   <path stroke="#000" stroke-width=".8094" fill="#ed1c24" d="m132 30.79v-4.39h7.2v4.39z"/>
  </g>
  <path stroke="#000" stroke-width=".7167" d="m121.1 23.52v-11.9"/>
  <path d="m120 3.363v2.193h2.2v-2.193z" fill="#ed1c24"/>
  <path stroke="#000" stroke-width=".8094" d="m121.1 26.28-3.6 2.32 3.6 2.32 3.5-2.32z" fill="#0098d4"/>
 </g>
 <path stroke="#000" stroke-width=".347" d="m0.9017 9.086v18.53s0.0311 2.14 0.1203 2.96c0.09 0.81 0.171 1.96 0.498 2.86 0.35 0.96 0.669 1.6 0.992 2.07s0.743 0.96 1.272 1.36c0.63 0.48 0.881 0.63 1.332 0.86 0.521 0.28 0.817 0.35 1.315 0.5s1.081 0.27 1.548 0.32c0.467 0.06 1.05 0.09 1.517 0.12s1.614 0.06 1.964 0.06h6.25c0.35 0 1.49-0.03 1.96-0.06s1.05-0.06 1.52-0.12c0.47-0.05 1.05-0.17 1.55-0.32 0.49-0.15 0.79-0.23 1.31-0.5 0.46-0.23 0.7-0.38 1.33-0.86 0.53-0.4 0.95-0.89 1.28-1.36 0.32-0.47 0.64-1.11 0.99-2.07 0.32-0.9 0.41-2.05 0.49-2.86 0.1-0.83 0.13-2.96 0.13-2.96v-18.53" fill="#fd0"/>
 <use xlink:href="#e" fill="#fff"/>
 <use x="6.83139992" xlink:href="#b"/>
 <use xlink:href="#d" transform="matrix(.2372 0 0 .2372 -27.8 .1258)"/>
 <use xlink:href="#c" transform="matrix(-1 0 0 1 29.17 0)"/>
 <path stroke="#000" stroke-width=".2" d="m14.19 37.98-11.69-28.13 7.299 0.025 11.58 27.92 1.73-0.47 1.75-1 1.34-1.54 0.65-1.46-25.17-8.29-0.067 0.11 5.135 12.39-1.75-0.75-1.206-0.97-0.821-1.07-0.79-1.71-0.241-0.82 17.36 5.72zm12.66-4.65-9.82-23.41 2.9-0.088 7.65 2.518-0.03-2.498-3.27 0.035 3.26 7.853v1.7l-25.92-8.56-0.03 7.05 25.96 8.58-0.19 4.47-0.24 1.51z" fill="#0090cf"/>
 <path d="m28.28 8.272h-27.44" nodetypes="cc"/>
 <use x="13.663" xlink:href="#b"/>
 <g id="c">
  <ellipse rx=".617" ry=".706" cy="1.034" cx="28.25" stroke-width=".4" fill="#fd0"/>
  <path stroke="#000" stroke-width=".03" d="m28.23 0.149v0.175c0.205-0.009 0.336 0.084 0.421 0.163 0.198 0.182 0.264 0.408 0.21 0.678-0.083 0.396-0.388 0.558-0.713 0.558v1.852l0.222-0.053v-1.6c0.216-0.062 0.368-0.175 0.466-0.275 0.308-0.315 0.312-0.747 0.144-1.084-0.18-0.289-0.44-0.438-0.75-0.414z"/>
  <circle stroke-width=".4" stroke="#fd0" cy="6.909" cx="26.77" r=".512"/>
  <path d="m27.9 0.918v0.52h0.52v-0.52h-0.52z" fill="#ED1C24"/>
 </g>
 <g stroke="#000" fill="#fd0">
  <path stroke-width=".3484" d="m0.9017 1.723v7.548m27.37 0v-7.548" nodetypes="cccc"/>
  <path stroke-width=".28" d="m28.27 8.29h-27.37"/>
  <path stroke-width=".28" d="m28.27 9.073h-27.37"/>
 </g>
 <g stroke="#000" stroke-width=".3019" fill="none">
  <path id="e" d="m1.614 9.855v17.58s0.031 2.02 0.113 2.8c0.085 0.77 0.171 1.92 0.467 2.77 0.151 0.45 0.42 1.17 0.89 1.92 0.284 0.46 0.673 0.94 1.175 1.32 0.597 0.46 0.9 0.64 1.336 0.84 0.63 0.29 0.864 0.36 1.338 0.49 0.514 0.13 0.98 0.21 1.424 0.25 0.482 0.05 0.98 0.07 1.377 0.09 0.446 0.02 1.556 0.05 1.886 0.05h5.94c0.33 0 1.43-0.03 1.88-0.05 0.39-0.02 0.89-0.04 1.37-0.09 0.45-0.04 0.91-0.12 1.43-0.25 0.47-0.13 0.71-0.19 1.34-0.49 0.43-0.2 0.74-0.38 1.33-0.84 0.5-0.38 0.89-0.86 1.18-1.32 0.47-0.75 0.73-1.47 0.89-1.92 0.3-0.85 0.38-2 0.46-2.77 0.09-0.78 0.12-2.8 0.12-2.8v-17.58z"/>
 </g>
</svg>
