<?xml version="1.0" encoding="UTF-8" standalone="no"?>
<!-- Created with Inkscape (http://www.inkscape.org/) -->

<svg
   xmlns:dc="http://purl.org/dc/elements/1.1/"
   xmlns:cc="http://creativecommons.org/ns#"
   xmlns:rdf="http://www.w3.org/1999/02/22-rdf-syntax-ns#"
   xmlns:svg="http://www.w3.org/2000/svg"
   xmlns="http://www.w3.org/2000/svg"
   xmlns:xlink="http://www.w3.org/1999/xlink"
   xmlns:sodipodi="http://sodipodi.sourceforge.net/DTD/sodipodi-0.dtd"
   xmlns:inkscape="http://www.inkscape.org/namespaces/inkscape"
   sodipodi:docname="bayern_wappen_sw.svg"
   inkscape:version="0.48.4 r9939"
   version="1.1"
   id="svg2"
   height="388.15094"
   width="291.21231">
  <sodipodi:namedview
     id="base"
     pagecolor="#ffffff"
     bordercolor="#666666"
     borderopacity="1.0"
     inkscape:pageopacity="0.0"
     inkscape:pageshadow="2"
     inkscape:zoom="0.49497475"
     inkscape:cx="659.7488"
     inkscape:cy="-45.109469"
     inkscape:document-units="px"
     inkscape:current-layer="svg2"
     showgrid="false"
     fit-margin-top="0"
     fit-margin-left="0"
     fit-margin-right="0"
     fit-margin-bottom="0"
     inkscape:window-width="1918"
     inkscape:window-height="1059"
     inkscape:window-x="0"
     inkscape:window-y="19"
     inkscape:window-maximized="1" />
  <defs
     id="defs4">
    <filter
       color-interpolation-filters="sRGB"
       inkscape:menu-tooltip="Increase or decrease lightness and contrast"
       inkscape:menu="Color"
       height="1"
       width="1"
       y="0"
       x="0"
       inkscape:label="Lightness-Contrast"
       id="filter3233">
      <feColorMatrix
         result="fbSourceGraphic"
         values="0"
         type="saturate"
         id="feColorMatrix3235" />
      <feColorMatrix
         id="feColorMatrix3237"
         values="0 0 0 -1 0 0 0 0 -1 0 0 0 0 -1 0 0 0 0 1 0"
         in="fbSourceGraphic"
         result="fbSourceGraphicAlpha" />
      <feFlood
         in="fbSourceGraphic"
         flood-color="rgb(128,128,128)"
         flood-opacity="0"
         result="result1"
         id="feFlood3239" />
      <feBlend
         result="result2"
         mode="normal"
         in2="fbSourceGraphic"
         id="feBlend3241" />
      <feComposite
         result="result3"
         operator="arithmetic"
         k2="1"
         in2="fbSourceGraphic"
         id="feComposite3243" />
      <feComposite
         operator="in"
         in2="fbSourceGraphic"
         id="feComposite3245" />
    </filter>
  </defs>
  <metadata
     id="metadata7">
    <rdf:RDF>
      <cc:Work
         rdf:about="">
        <dc:format>image/svg+xml</dc:format>
        <dc:type
           rdf:resource="http://purl.org/dc/dcmitype/StillImage" />
      </cc:Work>
    </rdf:RDF>
  </metadata>
  <g
     transform="translate(-77.746292,-316.53941)"
     id="layer1"
     inkscape:groupmode="layer"
     inkscape:label="Ebene 1">
    <g
       style="filter:url(#filter3233)"
       transform="matrix(10,0,0,10,77.502453,315.62786)"
       id="g3055">
      <use
         height="1"
         width="1"
         y="0"
         x="0"
         xlink:href="#a"
         transform="matrix(-0.2372,0,0,0.2372,36.49,0.1258)"
         id="use2987" />
      <g
         id="b"
         transform="matrix(0.2372,0,0,0.2372,-20.93,0.1258)">
        <g
           id="a">
          <path
             style="fill:#ffffff"
             inkscape:connector-curvature="0"
             d="m 136.6,37.66 h -16.2 l 0.5,-36.74 1.42,-0.21627 1.28,1.2653 0.6,1.312 1.7,0.407 0.8,1.218 v 2.032 l -1.7,-0.219 -1.1,0.781 -0.2,1.313 1.5,1.437 1.6,-0.77 0.8,-1.667 h 1.1 l 0.9,0.781 0.4,1.706 1.7,0.33 0.9,2 -0.7,1.78 -1.2,0.56 -1,0.06 -0.9,1.66 -2.1,0.53 v -1.72 l -0.7,-1.16 -1.4,-0.06 -1.2,1.22 0.1,2.81 0.5,1.72 1.9,2.03 3.1,0.63 h 3 l 1.8,-0.25 c 0.7,-0.67 1.7,-2.36 1.7,-2.36"
             nodetypes="cccccccccccccccccccccccccccccccccccc"
             id="path2991" />
          <path
             inkscape:connector-curvature="0"
             id="z"
             d="m 121.03,0.899 c 2.19,0 2.57,2.281 2.77,2.572 0.2,0.29 0.9,0.285 1.2,0.358 0.5,0.155 0.8,0.496 1.1,0.856 0.2,0.309 0.3,0.766 0.2,1.798 -0.1,-0.039 -0.6,-0.259 -0.9,-0.224 -0.4,0.046 -0.7,0.077 -1.1,0.338 -0.6,0.373 -0.7,0.574 -0.9,1.009 -0.2,0.472 -0.3,1.207 0.1,1.658 0.3,0.538 0.3,0.458 0.8,0.806 0.4,0.3 1,0.47 1.6,0.35 0.5,-0.1 0.8,-0.33 1.2,-0.708 0.4,-0.572 0.7,-1.355 0.7,-1.49 0.6,-0.157 1.1,0.254 1.3,0.557 0.5,0.737 0.5,1.205 0.5,1.931 1.2,-0.31 2.5,0.4 2.5,1.82 0,1.41 -1.2,2.2 -2.6,1.73 0,1.21 -0.6,1.81 -1.1,2.2 -0.4,0.3 -0.9,0.26 -1.4,0.26 0.1,-0.46 0.1,-0.52 0.1,-1.01 -0.1,-0.57 -0.3,-1.17 -0.6,-1.45 -0.3,-0.28 -0.9,-0.62 -1.5,-0.45 -0.5,0.14 -1.3,0.43 -1.6,0.95 -0.5,0.61 -0.5,1.03 -0.5,1.79 0,0.95 0.2,1.96 0.5,2.91 0.3,0.95 0.8,1.61 1.2,2.11 0.4,0.53 1.2,0.9 2,1.14 0.7,0.21 1.5,0.33 2.7,0.39 1.2,0.06 2,0.03 2.8,0 0.4,-0.02 0.6,-0.028 1.2,-0.19 0.4,-0.108 0.94,-0.39 1.4,-0.82 0.35,-0.326 0.65,-0.994 0.7,-1.23 0.05,-0.235 0.12,-0.848 0.12,-0.848 0,0 -0.62,0.778 -0.92,1.068 -0.3,0.27 -0.6,0.62 -0.9,0.79 -0.7,0.39 -1.3,0.37 -1.9,0.39 -0.9,0.02 -2.2,0 -3.4,-0.11 -1.3,-0.11 -2.2,-0.35 -2.9,-0.95 -0.7,-0.63 -1.1,-1.24 -1.3,-2.02 -0.5,-1.66 -0.5,-2.24 -0.4,-3.13 0.1,-1.05 1.1,-1.48 1.5,-1.46 0.4,0.02 0.6,0.22 0.8,0.53 0.4,0.76 0.1,1.45 0.1,2.21 1.4,0.35 2,0.1 2.6,-0.28 0.6,-0.36 1.2,-1.2 1.2,-1.73 0.6,0.17 1.3,-0.06 2,-0.5 0.4,-0.32 0.9,-1.26 0.9,-2.14 0,-0.69 -0.2,-1.36 -0.4,-1.77 -0.6,-0.84 -1.5,-1.013 -2.2,-1.013 0,-1.735 -1.9,-2.894 -3.1,-2.545 0.1,0.876 -0.2,1.332 -0.4,1.612 -0.2,0.358 -0.5,0.591 -0.9,0.71 -0.6,0.154 -1,-0.092 -1.3,-0.334 -0.5,-0.344 -0.7,-1.196 -0.2,-1.734 0.3,-0.371 0.9,-0.563 1.2,-0.503 0.4,0.079 0.8,0.32 1,0.234 0.3,-0.085 0.4,-0.72 0.4,-0.938 0.3,-2.485 -1,-3.228 -2.6,-3.546 -0.5,-1.93 -2.11,-2.828 -3.37,-2.828" />
          <circle
             d="m -0.35399985,63.16 c 0,1.171396 -0.94960405,2.121 -2.12100005,2.121 -1.171396,0 -2.1210001,-0.949604 -2.1210001,-2.121 0,-1.171396 0.9496041,-2.121 2.1210001,-2.121 1.171396,0 2.12100005,0.949604 2.12100005,2.121 z"
             sodipodi:ry="2.1210001"
             sodipodi:rx="2.1210001"
             sodipodi:cy="63.16"
             sodipodi:cx="-2.4749999"
             cy="63.16"
             cx="-2.4749999"
             r="2.1210001"
             transform="matrix(0.6211,0,0,0.6211,129.9,-10.62)"
             id="circle2994" />
          <path
             style="fill:#000000"
             inkscape:connector-curvature="0"
             d="m 126.9,11.29 v 2.19 h 2.2 v -2.19 z"
             id="path2996" />
        </g>
        <use
           height="1"
           width="1"
           y="0"
           x="0"
           xlink:href="#a"
           transform="matrix(-1,0,0,1,271,0)"
           id="use2998" />
        <g
           id="d">
          <use
             height="1"
             width="1"
             y="0"
             x="0"
             xlink:href="#a"
             id="use3001" />
          <path
             style="fill:#000000;stroke:#000000;stroke-width:0.81;stroke-linejoin:round"
             inkscape:connector-curvature="0"
             d="m 135.5,13.5 c -2.1,0 -2.8,2.33 -1.4,3.92 -2.1,-0.63 -3.9,1.02 -3,2.54 1.1,1.99 3.3,1.02 4.4,-0.36 1.2,1.56 3.4,2.13 4.4,0.45 1.1,-1.77 -0.9,-3.51 -2.9,-2.65 1.2,-1.56 0.6,-3.9 -1.5,-3.9 z"
             id="path3003" />
          <path
             style="fill:#000000;stroke:#000000;stroke-width:0.80940002"
             inkscape:connector-curvature="0"
             d="M 132,30.79 V 26.4 h 7.2 v 4.39 z"
             id="path3005" />
        </g>
        <path
           style="stroke:#000000;stroke-width:0.71670002"
           inkscape:connector-curvature="0"
           d="M 121.1,23.52 V 11.62"
           id="path3007" />
        <path
           style="fill:#000000"
           inkscape:connector-curvature="0"
           d="m 120,3.363 v 2.193 h 2.2 V 3.363 z"
           id="path3009" />
        <path
           style="fill:#000000;stroke:#000000;stroke-width:0.80940002"
           inkscape:connector-curvature="0"
           d="m 121.1,26.28 -3.6,2.32 3.6,2.32 3.5,-2.32 z"
           id="path3011" />
      </g>
      <path
         style="fill:#ffffff;stroke:#000000;stroke-width:0.347"
         inkscape:connector-curvature="0"
         d="m 0.9017,9.086 v 18.53 c 0,0 0.0311,2.14 0.1203,2.96 0.09,0.81 0.171,1.96 0.498,2.86 0.35,0.96 0.669,1.6 0.992,2.07 0.323,0.47 0.743,0.96 1.272,1.36 0.63,0.48 0.881,0.63 1.332,0.86 0.521,0.28 0.817,0.35 1.315,0.5 0.498,0.15 1.081,0.27 1.548,0.32 0.467,0.06 1.05,0.09 1.517,0.12 0.467,0.03 1.614,0.06 1.964,0.06 h 6.25 c 0.35,0 1.49,-0.03 1.96,-0.06 0.47,-0.03 1.05,-0.06 1.52,-0.12 0.47,-0.05 1.05,-0.17 1.55,-0.32 0.49,-0.15 0.79,-0.23 1.31,-0.5 0.46,-0.23 0.7,-0.38 1.33,-0.86 0.53,-0.4 0.95,-0.89 1.28,-1.36 0.32,-0.47 0.64,-1.11 0.99,-2.07 0.32,-0.9 0.41,-2.05 0.49,-2.86 0.1,-0.83 0.13,-2.96 0.13,-2.96 V 9.086"
         id="path3013" />
      <use
         height="1"
         width="1"
         y="0"
         x="0"
         style="fill:#ffffff"
         xlink:href="#e"
         id="use3015" />
      <use
         height="1"
         width="1"
         y="0"
         x="6.8313999"
         xlink:href="#b"
         id="use3017" />
      <use
         height="1"
         width="1"
         y="0"
         x="0"
         xlink:href="#d"
         transform="matrix(0.2372,0,0,0.2372,-27.8,0.1258)"
         id="use3019" />
      <use
         height="1"
         width="1"
         y="0"
         x="0"
         xlink:href="#c"
         transform="matrix(-1,0,0,1,29.17,0)"
         id="use3021" />
      <path
         style="fill:#000000;stroke:#000000;stroke-width:0.2"
         inkscape:connector-curvature="0"
         d="M 14.19,37.98 2.5,9.85 l 7.299,0.025 11.58,27.92 1.73,-0.47 1.75,-1 1.34,-1.54 0.65,-1.46 -25.17,-8.29 -0.067,0.11 5.135,12.39 -1.75,-0.75 -1.206,-0.97 -0.821,-1.07 -0.79,-1.71 -0.241,-0.82 17.36,5.72 z m 12.66,-4.65 -9.82,-23.41 2.9,-0.088 7.65,2.518 -0.03,-2.498 -3.27,0.035 3.26,7.853 v 1.7 l -25.92,-8.56 -0.03,7.05 25.96,8.58 -0.19,4.47 -0.24,1.51 z"
         id="path3023" />
      <path
         inkscape:connector-curvature="0"
         d="M 28.28,8.272 H 0.84"
         nodetypes="cc"
         id="path3025" />
      <use
         height="1"
         width="1"
         y="0"
         x="13.663"
         xlink:href="#b"
         id="use3027" />
      <g
         id="c">
        <ellipse
           d="m 28.867,1.034 c 0,0.3899131 -0.27624,0.706 -0.617,0.706 -0.34076,0 -0.617,-0.3160869 -0.617,-0.706 0,-0.38991298 0.27624,-0.70599993 0.617,-0.70599993 0.34076,0 0.617,0.31608695 0.617,0.70599993 z"
           style="fill:#ffffff;stroke-width:0.40000001"
           sodipodi:ry="0.70599997"
           sodipodi:rx="0.61699998"
           sodipodi:cy="1.034"
           sodipodi:cx="28.25"
           rx="0.61699998"
           ry="0.70599997"
           cy="1.034"
           cx="28.25"
           id="ellipse3030" />
        <path
           style="stroke:#000000;stroke-width:0.03"
           inkscape:connector-curvature="0"
           d="m 28.23,0.149 v 0.175 c 0.205,-0.009 0.336,0.084 0.421,0.163 0.198,0.182 0.264,0.408 0.21,0.678 -0.083,0.396 -0.388,0.558 -0.713,0.558 V 3.575 L 28.37,3.522 v -1.6 C 28.586,1.86 28.738,1.747 28.836,1.647 29.144,1.332 29.148,0.9 28.98,0.563 28.8,0.274 28.54,0.125 28.23,0.149 z"
           id="path3032" />
        <circle
           d="m 27.282,6.9089999 c 0,0.2827698 -0.22923,0.512 -0.512,0.512 -0.282769,0 -0.512,-0.2292302 -0.512,-0.512 0,-0.2827698 0.229231,-0.512 0.512,-0.512 0.28277,0 0.512,0.2292302 0.512,0.512 z"
           style="stroke:#ffffff;stroke-width:0.40000001"
           sodipodi:ry="0.51200002"
           sodipodi:rx="0.51200002"
           sodipodi:cy="6.9089999"
           sodipodi:cx="26.77"
           cy="6.9089999"
           cx="26.77"
           r="0.51200002"
           id="circle3034" />
        <path
           style="fill:#000000"
           inkscape:connector-curvature="0"
           d="m 27.9,0.918 v 0.52 h 0.52 V 0.918 H 27.9 z"
           id="path3036" />
      </g>
      <g
         style="fill:#ffffff;stroke:#000000"
         id="g3038">
        <path
           style="stroke-width:0.3484"
           inkscape:connector-curvature="0"
           d="m 0.9017,1.723 v 7.548 m 27.37,0 V 1.723"
           nodetypes="cccc"
           id="path3040" />
        <path
           style="stroke-width:0.28"
           inkscape:connector-curvature="0"
           d="M 28.27,8.29 H 0.9"
           id="path3042" />
        <path
           style="stroke-width:0.28"
           inkscape:connector-curvature="0"
           d="M 28.27,9.073 H 0.9"
           id="path3044" />
      </g>
      <g
         style="fill:none;stroke:#000000;stroke-width:0.3019"
         id="g3046">
        <path
           inkscape:connector-curvature="0"
           id="e"
           d="m 1.614,9.855 v 17.58 c 0,0 0.031,2.02 0.113,2.8 0.085,0.77 0.171,1.92 0.467,2.77 0.151,0.45 0.42,1.17 0.89,1.92 0.284,0.46 0.673,0.94 1.175,1.32 0.597,0.46 0.9,0.64 1.336,0.84 0.63,0.29 0.864,0.36 1.338,0.49 0.514,0.13 0.98,0.21 1.424,0.25 0.482,0.05 0.98,0.07 1.377,0.09 0.446,0.02 1.556,0.05 1.886,0.05 h 5.94 c 0.33,0 1.43,-0.03 1.88,-0.05 0.39,-0.02 0.89,-0.04 1.37,-0.09 0.45,-0.04 0.91,-0.12 1.43,-0.25 0.47,-0.13 0.71,-0.19 1.34,-0.49 0.43,-0.2 0.74,-0.38 1.33,-0.84 0.5,-0.38 0.89,-0.86 1.18,-1.32 0.47,-0.75 0.73,-1.47 0.89,-1.92 0.3,-0.85 0.38,-2 0.46,-2.77 0.09,-0.78 0.12,-2.8 0.12,-2.8 V 9.855 z" />
      </g>
    </g>
  </g>
</svg>
