<?xml version="1.0" encoding="UTF-8" standalone="no"?>
<!-- Created with Inkscape (http://www.inkscape.org/) -->

<svg
   xmlns:dc="http://purl.org/dc/elements/1.1/"
   xmlns:cc="http://creativecommons.org/ns#"
   xmlns:rdf="http://www.w3.org/1999/02/22-rdf-syntax-ns#"
   xmlns:svg="http://www.w3.org/2000/svg"
   xmlns="http://www.w3.org/2000/svg"
   xmlns:sodipodi="http://sodipodi.sourceforge.net/DTD/sodipodi-0.dtd"
   xmlns:inkscape="http://www.inkscape.org/namespaces/inkscape"
   id="svg2"
   version="1.1"
   inkscape:version="0.48.4 r9939"
   width="347.5"
   height="131.25"
   xml:space="preserve"
   sodipodi:docname="sappz.svg"><metadata
     id="metadata8"><rdf:RDF><cc:Work
         rdf:about=""><dc:format>image/svg+xml</dc:format><dc:type
           rdf:resource="http://purl.org/dc/dcmitype/StillImage" /><dc:title /></cc:Work></rdf:RDF></metadata><defs
     id="defs6" /><sodipodi:namedview
     pagecolor="#ffffff"
     bordercolor="#666666"
     borderopacity="1"
     objecttolerance="10"
     gridtolerance="10"
     guidetolerance="10"
     inkscape:pageopacity="0"
     inkscape:pageshadow="2"
     inkscape:window-width="1918"
     inkscape:window-height="1059"
     id="namedview4"
     showgrid="false"
     inkscape:zoom="2.8324969"
     inkscape:cx="183.28293"
     inkscape:cy="22.671269"
     inkscape:window-x="0"
     inkscape:window-y="19"
     inkscape:window-maximized="1"
     inkscape:current-layer="g10" /><g
     id="g10"
     inkscape:groupmode="layer"
     inkscape:label="ink_ext_XXXXXX"
     transform="matrix(1.25,0,0,-1.25,0,131.25)"><rect
       transform="scale(1,-1)"
       y="27.160927"
       x="-344.3046"
       height="282.79309"
       width="337.11493"
       id="rect3059"
       style="fill:#000000;fill-opacity:1;fill-rule:nonzero;stroke:#ffffff;stroke-width:1.75999999;stroke-linecap:round;stroke-linejoin:round;stroke-miterlimit:4;stroke-opacity:1;stroke-dasharray:none" /><g
       id="g3150"><path
         d="m 211.599,53.2332 22.897,0 0.142,45.3297 24.103,0 0,-71.5207 12.915,0"
         style="fill:none;stroke:#000000;stroke-width:3.42639994999999997;stroke-linecap:butt;stroke-linejoin:miter;stroke-miterlimit:3.86368989999999979;stroke-opacity:1;stroke-dasharray:none"
         id="path14"
         inkscape:connector-curvature="0" /><path
         style="fill:#000000;fill-opacity:1;fill-rule:nonzero;stroke:none"
         d="m 100.8,71.225 c -2.147104,0 -3.8766,-0.6754 -5.225,-2.025 -1.288696,-1.3497 -1.95,-3.0648 -1.95,-5.15 l 0,-28.825 7.175,0 0,14.4 21.575,0 0.175,-14.425 13.025,0.025 0,-11.9 7.175,0 0,11.9 7.65,-0.025 27.975,0 0.025,-11.875 7.175,0 0,11.9 7.65,-0.025 6.875,0 0.025,0.025 7.025,0 c 1.962,0 3.663,0.6754 5.075,2.025 1.41,1.3485 2.15,2.9875 2.15,4.95 l 0.0251,0.2 0,21.65 c 0,2.1469 -0.675,3.8512 -2.025,5.2 -1.288,1.2887 -3.078,1.975 -5.225,1.975 l -28.775,0 0,-28.825 -6.8,0 0,21.65 c 0,2.1469 -0.676,3.8512 -2.025,5.2 -1.288,1.2887 -3.078,1.975 -5.225,1.975 l -28.75,0 0,-28.825 -5.95,0 0,21.65 c 0,1.7172 -0.791,3.3661 -2.325,4.9 -1.533,1.4723 -3.208,2.275 -4.925,2.275 l -21.575,0 z m 0,-7.175 21.575,0 0,-7.25 -21.575,0 0,7.25 z m 41.95,0 21.575,0 0,-21.65 -21.575,0 0,21.65 z m 42.8,0 21.6,0 0,-21.65 -21.6,0 0,21.65 z"
         id="path16"
         inkscape:connector-curvature="0" /><path
         d="m 93.6516,53.2332 c -8.8719,0 -6.986,18.002 -14.2696,18.002 -7.4672,0 -7.8382,-28.7559 -14.8289,-28.7559 -11.7316,0 -11.8336,59.2357 -22.0547,59.2357 -10.2207,0 -13.0402,-74.749 -26.3906,-74.9041 -5.9543,-0.0691 -5.4957,0 -5.4957,0"
         style="fill:none;stroke:#000000;stroke-width:3.42639994999999997;stroke-linecap:butt;stroke-linejoin:miter;stroke-miterlimit:3.86368989999999979;stroke-opacity:1;stroke-dasharray:none"
         id="path24"
         inkscape:connector-curvature="0" /><path
         d="m 48.3238,91.3551 c -1.5652,5.8929 -3.4258,9.7429 -5.8254,9.7429 -10.2207,0 -13.0808,-73.8125 -26.4312,-73.8125 -8.61915,0 -12.10236,0 -12.10236,0"
         style="fill:none;stroke:#000000;stroke-width:7.44240046000000000;stroke-linecap:butt;stroke-linejoin:miter;stroke-miterlimit:3.86368989999999979;stroke-opacity:1;stroke-dasharray:none"
         id="path26"
         inkscape:connector-curvature="0" /><path
         d="m 247.676,98.5629 11.065,0 0,-71.802 15.09,0"
         style="fill:none;stroke:#000000;stroke-width:6.85290002999999981;stroke-linecap:butt;stroke-linejoin:miter;stroke-miterlimit:3.86368989999999979;stroke-opacity:1;stroke-dasharray:none"
         id="path28"
         inkscape:connector-curvature="0" /></g><path
       id="path14-4"
       style="fill:none;stroke:#ffffff;stroke-width:3.42639995;stroke-linecap:butt;stroke-linejoin:miter;stroke-miterlimit:3.8636899;stroke-opacity:1;stroke-dasharray:none"
       d="m -106.09407,-146.5862 22.896995,0 0.142,45.3297 24.103,0 0,-71.52069 12.915,0"
       inkscape:connector-curvature="0" /><path
       id="path16-9"
       d="m -216.89307,-128.5944 c -2.1471,0 -3.8766,-0.6754 -5.225,-2.025 -1.28869,-1.3497 -1.95,-3.0648 -1.95,-5.15 l 0,-28.82499 7.175,0 0,14.4 21.575,0 0.175,-14.425 13.025,0.025 0,-11.9 7.175,0 0,11.9 7.65,-0.025 27.975,0 0.025,-11.875 7.175,0 0,11.9 7.65,-0.025 6.875,0 0.025,0.025 7.025,0 c 1.962,0 3.663,0.6754 5.075,2.025 1.41,1.3485 2.15,2.9875 2.15,4.95 l 0.025,0.2 0,21.64999 c 0,2.1469 -0.675,3.8512 -2.025,5.2 -1.288,1.2887 -3.078,1.975 -5.225,1.975 l -28.775,0 0,-28.82499 -6.8,0 0,21.64999 c 0,2.1469 -0.676,3.8512 -2.025,5.2 -1.288,1.2887 -3.078,1.975 -5.225,1.975 l -28.75,0 0,-28.82499 -5.95,0 0,21.64999 c 0,1.7172 -0.791,3.3661 -2.325,4.9 -1.533,1.4723 -3.208,2.275 -4.925,2.275 l -21.575,0 z m 0,-7.175 21.575,0 0,-7.25 -21.575,0 0,7.25 z m 41.95,0 21.575,0 0,-21.64999 -21.575,0 0,21.64999 z m 42.8,0 21.6,0 0,-21.64999 -21.6,0 0,21.64999 z"
       style="fill:#ffffff;fill-opacity:1;fill-rule:nonzero;stroke:none"
       inkscape:connector-curvature="0" /><path
       id="path24-0"
       style="fill:none;stroke:#ffffff;stroke-width:3.42639995;stroke-linecap:butt;stroke-linejoin:miter;stroke-miterlimit:3.8636899;stroke-opacity:1;stroke-dasharray:none"
       d="m -224.04147,-146.5862 c -8.87189,0 -6.986,18.002 -14.2696,18.002 -7.4672,0 -7.8382,-28.75589 -14.8289,-28.75589 -11.7316,0 -11.8336,59.235692 -22.0547,59.235692 -10.2207,0 -13.0402,-74.748992 -26.3906,-74.904092 -5.9543,-0.0691 -5.4957,0 -5.4957,0"
       inkscape:connector-curvature="0" /><path
       id="path26-0"
       style="fill:none;stroke:#ffffff;stroke-width:7.44240046;stroke-linecap:butt;stroke-linejoin:miter;stroke-miterlimit:3.8636899;stroke-opacity:1;stroke-dasharray:none"
       d="m -269.36927,-108.4643 c -1.5652,5.8929 -3.4258,9.742902 -5.8254,9.742902 -10.2207,0 -13.0808,-73.812492 -26.4312,-73.812492 -8.61915,0 -12.10236,0 -12.10236,0"
       inkscape:connector-curvature="0" /><path
       id="path28-5"
       style="fill:none;stroke:#ffffff;stroke-width:6.85290003;stroke-linecap:butt;stroke-linejoin:miter;stroke-miterlimit:3.8636899;stroke-opacity:1;stroke-dasharray:none"
       d="m -70.017075,-101.2565 11.065,0 0,-71.80199 15.09,0"
       inkscape:connector-curvature="0" /><path
       id="path30-4"
       style="fill:#ffffff;fill-opacity:1;fill-rule:nonzero;stroke:none"
       d="m -308.48018,-190.09831 c -0.28047,1.38672 -1.03984,2.49221 -2.59101,2.49221 -1.56758,0 -2.55782,-1.32029 -2.55782,-2.80549 0,-1.61717 0.84141,-2.14531 2.11211,-2.88828 1.13867,-0.65976 2.07969,-1.15508 2.07969,-2.60741 0,-1.32031 -0.67656,-1.96367 -1.63398,-1.96367 -1.33672,0 -1.60079,0.92421 -1.74922,2.14531 l -1.10586,-0.14844 c 0.16523,-1.74962 0.875,-3.03672 2.82226,-3.03672 1.84844,0 2.77266,1.36993 2.77266,3.10273 0,1.69961 -0.92422,2.37617 -2.27774,3.18476 -1.73281,1.03985 -1.91445,1.32032 -1.91445,2.21172 0,0.9242 0.41289,1.766 1.45235,1.766 0.94062,0 1.33671,-0.809 1.51835,-1.61756 l 1.07266,0.16484"
       inkscape:connector-curvature="0" /><path
       id="path32-9"
       style="fill:#ffffff;fill-opacity:1;fill-rule:nonzero;stroke:none"
       d="m -303.71497,-198.76236 5.3637,0 0,0.99024 -4.2578,0 0,3.05312 3.5152,0 0,0.99024 -3.5152,0 0,2.5746 4.2578,0 0,0.98985 -5.3637,0 0,-8.59805"
       inkscape:connector-curvature="0" /><path
       id="path34-9"
       style="fill:#ffffff;fill-opacity:1;fill-rule:nonzero;stroke:none"
       d="m -294.44387,-198.76236 1.1055,0 0,4.96757 -0.0988,2.24453 0.0328,0.0328 3.334,-7.24492 1.3695,0 0,8.59805 -1.1059,0 0,-4.98399 0.0992,-2.22773 -0.0332,-0.0328 -3.3335,7.24453 -1.3696,0 0,-8.59805"
       inkscape:connector-curvature="0" /><path
       id="path36-0"
       style="fill:#ffffff;fill-opacity:1;fill-rule:nonzero;stroke:none"
       d="m -284.57937,-196.35299 c 0.2644,-1.53476 1.2711,-2.55781 2.8718,-2.55781 1.5844,0 2.7231,0.92421 2.7231,2.55781 0,0.8914 -0.4125,1.58476 -1.1883,2.01368 l -1.832,0.80859 c -0.6602,0.29726 -1.1551,0.52813 -1.1551,1.33672 0,0.77577 0.6934,1.13866 1.4027,1.13866 0.9407,0 1.3864,-0.59374 1.5844,-1.43553 l 1.0563,0.31328 c -0.3465,1.33711 -1.1883,2.16211 -2.6243,2.16211 -1.3531,0 -2.525,-0.8086 -2.525,-2.26095 0,-1.61719 1.1883,-1.94765 2.4426,-2.47577 0.8418,-0.3465 1.7328,-0.61055 1.7328,-1.66642 0,-0.95741 -0.7093,-1.45233 -1.6172,-1.45233 -1.155,0 -1.6667,0.77539 -1.8816,1.83164 l -0.9902,-0.31368"
       inkscape:connector-curvature="0" /><path
       id="path38-2"
       style="fill:#ffffff;fill-opacity:1;fill-rule:evenodd;stroke:none"
       d="m -272.00757,-190.01548 c -1.4195,0 -3.0531,-1.02306 -3.0531,-4.45587 0,-3.44921 1.6668,-4.43945 3.0531,-4.43945 3.0036,0 3.0532,3.74609 3.0532,4.43945 0,3.46563 -1.6836,4.45587 -3.0532,4.45587 z m 0,-1.03986 c 1.6668,0 1.8977,-2.1453 1.8977,-3.41601 0,-1.25429 -0.2309,-3.3996 -1.8977,-3.3996 -1.6667,0 -1.898,2.14531 -1.898,3.3996 0,1.27071 0.2313,3.41601 1.898,3.41601"
       inkscape:connector-curvature="0" /><path
       id="path40-3"
       style="fill:#ffffff;fill-opacity:1;fill-rule:evenodd;stroke:none"
       d="m -263.61147,-194.09167 0,2.93751 1.7821,0 c 0.9902,0 1.4523,-0.57774 1.4523,-1.35351 0,-0.97344 -0.7094,-1.584 -1.7824,-1.584 l -1.452,0 z m -1.1058,-4.67069 1.1058,0 0,3.68046 1.6008,0 2.1949,-3.89492 0.9571,0.57774 -2.1121,3.48202 c 1.0394,0.31368 1.7488,1.35352 1.7488,2.40939 0,1.66719 -1.1387,2.34336 -2.5742,2.34336 l -2.9211,0 0,-8.59805"
       inkscape:connector-curvature="0" /><path
       id="path42-7"
       style="fill:#ffffff;fill-opacity:1;fill-rule:nonzero;stroke:none"
       d="m -254.20907,-198.76236 3.532,0 0,0.99024 -1.2215,0 0,6.61796 1.2215,0 0,0.98985 -3.532,0 0,-0.98985 1.2051,0 0,-6.61796 -1.2051,0 0,-0.99024"
       inkscape:connector-curvature="0" /><path
       id="path44-1"
       style="fill:#ffffff;fill-opacity:1;fill-rule:nonzero;stroke:none"
       d="m -243.83217,-190.16431 -1.1058,0 0,-8.59805 1.1058,0 0,4.02694 0.3793,0 3.4825,-4.2414 0.8418,0.70938 -3.3504,4.04336 2.8547,3.61445 -0.8415,0.66016 -2.9539,-3.87852 -0.4125,0 0,3.66368"
       inkscape:connector-curvature="0" /><path
       id="path46-1"
       style="fill:#ffffff;fill-opacity:1;fill-rule:nonzero;stroke:none"
       d="m -234.71027,-194.98307 3.66407,0 0,1.03984 -3.66407,0 0,-1.03984 z"
       inkscape:connector-curvature="0" /><path
       id="path48-2"
       style="fill:#ffffff;fill-opacity:1;fill-rule:evenodd;stroke:none"
       d="m -221.59387,-195.36275 0.8578,-3.61407 1.08951,0.29727 -2.78911,10.92496 -1.32029,0 -2.78911,-10.92496 1.08911,-0.29727 0.8582,3.61407 3.00389,0 z m -0.264,0.99063 -2.4758,0 1.22111,5.14882 0.0332,0 1.22149,-5.14882"
       inkscape:connector-curvature="0" /><path
       id="path50-6"
       style="fill:#ffffff;fill-opacity:1;fill-rule:evenodd;stroke:none"
       d="m -214.48507,-195.06548 1.848,0 c 1.205,0 2.492,0.74257 2.492,2.55781 0,1.25429 -0.775,2.34336 -2.772,2.34336 l -2.674,0 0,-8.59805 1.106,0 0,3.69688 z m 0,0.99022 0,2.9211 1.518,0 c 0.908,0 1.667,-0.26407 1.667,-1.43594 0,-0.99024 -0.578,-1.48516 -1.667,-1.48516 l -1.518,0"
       inkscape:connector-curvature="0" /><path
       id="path52-2"
       style="fill:#ffffff;fill-opacity:1;fill-rule:evenodd;stroke:none"
       d="m -204.70307,-195.06548 1.849,0 c 1.204,0 2.491,0.74257 2.491,2.55781 0,1.25429 -0.775,2.34336 -2.772,2.34336 l -2.674,0 0,-8.59805 1.106,0 0,3.69688 z m 0,0.99022 0,2.9211 1.518,0 c 0.908,0 1.667,-0.26407 1.667,-1.43594 0,-0.99024 -0.577,-1.48516 -1.667,-1.48516 l -1.518,0"
       inkscape:connector-curvature="0" /><path
       id="path54-5"
       style="fill:#ffffff;fill-opacity:1;fill-rule:nonzero;stroke:none"
       d="m -195.89407,-198.76236 5.611,0 0,0.99024 -4.505,0 0,7.60781 -1.106,0 0,-8.59805"
       inkscape:connector-curvature="0" /><path
       id="path56-5"
       style="fill:#ffffff;fill-opacity:1;fill-rule:nonzero;stroke:none"
       d="m -185.73207,-198.76236 3.532,0 0,0.99024 -1.222,0 0,6.61796 1.222,0 0,0.98985 -3.532,0 0,-0.98985 1.205,0 0,-6.61796 -1.205,0 0,-0.99024"
       inkscape:connector-curvature="0" /><path
       id="path58-0"
       style="fill:#ffffff;fill-opacity:1;fill-rule:nonzero;stroke:none"
       d="m -175.35607,-190.16431 -1.105,0 0,-8.59805 1.105,0 0,4.02694 0.38,0 3.482,-4.2414 0.842,0.70938 -3.35,4.04336 2.854,3.61445 -0.841,0.66016 -2.954,-3.87852 -0.413,0 0,3.66368"
       inkscape:connector-curvature="0" /><path
       id="path60-0"
       style="fill:#ffffff;fill-opacity:1;fill-rule:evenodd;stroke:none"
       d="m -162.86707,-196.41862 0.792,-2.5582 1.089,0.3961 -2.706,8.41641 -1.419,0 -2.707,-8.41641 1.089,-0.3961 0.809,2.5582 3.053,0 z m -0.313,0.98986 -2.443,0 1.221,3.97733 1.222,-3.97733"
       inkscape:connector-curvature="0" /><path
       id="path62-3"
       style="fill:#ffffff;fill-opacity:1;fill-rule:nonzero;stroke:none"
       d="m -155.14707,-198.76236 1.105,0 0,7.6082 2.327,0 0,0.98985 -5.809,0 0,-0.98985 2.377,0 0,-7.6082"
       inkscape:connector-curvature="0" /><path
       id="path64-9"
       style="fill:#ffffff;fill-opacity:1;fill-rule:nonzero;stroke:none"
       d="m -146.60307,-198.76236 3.532,0 0,0.99024 -1.222,0 0,6.61796 1.222,0 0,0.98985 -3.532,0 0,-0.98985 1.205,0 0,-6.61796 -1.205,0 0,-0.99024"
       inkscape:connector-curvature="0" /><path
       id="path66-2"
       style="fill:#ffffff;fill-opacity:1;fill-rule:evenodd;stroke:none"
       d="m -135.05407,-190.01548 c -1.42,0 -3.053,-1.02306 -3.053,-4.45587 0,-3.44921 1.666,-4.43945 3.053,-4.43945 3.003,0 3.053,3.74609 3.053,4.43945 0,3.46563 -1.684,4.45587 -3.053,4.45587 z m 0,-1.03986 c 1.666,0 1.897,-2.1453 1.897,-3.41601 0,-1.25429 -0.231,-3.3996 -1.897,-3.3996 -1.668,0 -1.898,2.14531 -1.898,3.3996 0,1.27071 0.23,3.41601 1.898,3.41601"
       inkscape:connector-curvature="0" /><path
       id="path68-2"
       style="fill:#ffffff;fill-opacity:1;fill-rule:nonzero;stroke:none"
       d="m -128.14407,-198.76236 1.106,0 0,4.96757 -0.099,2.24453 0.033,0.0328 3.334,-7.24492 1.37,0 0,8.59805 -1.106,0 0,-4.98399 0.099,-2.22773 -0.034,-0.0328 -3.333,7.24453 -1.37,0 0,-8.59805"
       inkscape:connector-curvature="0" /><path
       id="path70-9"
       style="fill:#ffffff;fill-opacity:1;fill-rule:nonzero;stroke:none"
       d="m -118.27907,-196.35299 c 0.264,-1.53476 1.271,-2.55781 2.872,-2.55781 1.584,0 2.723,0.92421 2.723,2.55781 0,0.8914 -0.413,1.58476 -1.189,2.01368 l -1.831,0.80859 c -0.661,0.29726 -1.156,0.52813 -1.156,1.33672 0,0.77577 0.694,1.13866 1.403,1.13866 0.941,0 1.386,-0.59374 1.584,-1.43553 l 1.057,0.31328 c -0.347,1.33711 -1.189,2.16211 -2.625,2.16211 -1.353,0 -2.525,-0.8086 -2.525,-2.26095 0,-1.61719 1.189,-1.94765 2.443,-2.47577 0.842,-0.3465 1.733,-0.61055 1.733,-1.66642 0,-0.95741 -0.71,-1.45233 -1.617,-1.45233 -1.156,0 -1.667,0.77539 -1.882,1.83164 l -0.99,-0.31368"
       inkscape:connector-curvature="0" /><path
       id="path72-0"
       style="fill:#ffffff;fill-opacity:1;fill-rule:nonzero;stroke:none"
       d="m -109.00907,-198.76236 6.469,0 0,0.99024 -4.786,0 4.654,10.01753 -5.859,0 0,-0.9902 4.192,0 -4.67,-10.01757"
       inkscape:connector-curvature="0" /><path
       id="path74-7"
       style="fill:#ffffff;fill-opacity:1;fill-rule:nonzero;stroke:none"
       d="m -98.352075,-198.76236 5.363,0 0,0.99024 -4.258,0 0,3.05312 3.516,0 0,0.99024 -3.516,0 0,2.5746 4.258,0 0,0.98985 -5.363,0 0,-8.59805"
       inkscape:connector-curvature="0" /><path
       id="path76-7"
       style="fill:#ffffff;fill-opacity:1;fill-rule:nonzero;stroke:none"
       d="m -89.081075,-198.76236 1.105,0 0,4.96757 -0.099,2.24453 0.03304,0.0328 3.334,-7.24492 1.37,0 0,8.59805 -1.106,0 0,-4.98399 0.099,-2.22773 -0.03296,-0.0328 -3.334,7.24453 -1.369,0 0,-8.59805"
       inkscape:connector-curvature="0" /><path
       id="path78-2"
       style="fill:#ffffff;fill-opacity:1;fill-rule:nonzero;stroke:none"
       d="m -76.955075,-198.76236 1.105,0 0,7.6082 2.327,0 0,0.98985 -5.809,0 0,-0.98985 2.377,0 0,-7.6082"
       inkscape:connector-curvature="0" /><path
       id="path80-7"
       style="fill:#ffffff;fill-opacity:1;fill-rule:evenodd;stroke:none"
       d="m -68.031075,-194.09167 0,2.93751 1.782,0 c 0.99,0 1.452,-0.57774 1.452,-1.35351 0,-0.97344 -0.709,-1.584 -1.782,-1.584 l -1.452,0 z m -1.106,-4.67069 1.106,0 0,3.68046 1.601,0 2.194,-3.89492 0.957,0.57774 -2.112,3.48202 c 1.04,0.31368 1.749,1.35352 1.749,2.40939 0,1.66719 -1.138,2.34336 -2.574,2.34336 l -2.921,0 0,-8.59805"
       inkscape:connector-curvature="0" /><path
       id="path82-3"
       style="fill:#ffffff;fill-opacity:1;fill-rule:nonzero;stroke:none"
       d="m -59.553075,-190.16431 0,-6.32071 c 0,-1.25429 0.825,-2.42578 2.69,-2.42578 1.898,0 2.707,1.22109 2.707,2.36016 l 0,6.38633 -1.106,0 0,-5.8582 c 0,-1.23791 -0.297,-1.84844 -1.683,-1.84844 -1.139,0 -1.502,0.59375 -1.502,1.84844 l 0,5.8582 -1.106,0"
       inkscape:connector-curvature="0" /><path
       id="path84-4"
       style="fill:#ffffff;fill-opacity:1;fill-rule:nonzero;stroke:none"
       d="m -47.072075,-196.33619 1.931,4.53828 0.03296,0 0.214,-6.96445 1.172,0 -0.346,8.59805 -1.453,0 -1.551,-3.72931 -1.551,3.72931 -1.453,0 -0.346,-8.59805 1.172,0 0.214,6.96445 0.03296,0 1.931,-4.53828"
       inkscape:connector-curvature="0" /><g
       id="g3120"
       style="fill:#000000;stroke:#000000;stroke-width:0.4;stroke-miterlimit:4;stroke-dasharray:none"
       transform="translate(-3.4448501,59.11494)"><path
         inkscape:connector-curvature="0"
         d="m 12.53939,-45.536733 c -0.28047,1.38672 -1.03984,2.49221 -2.59101,2.49221 -1.56758,0 -2.55782,-1.32029 -2.55782,-2.80549 0,-1.61717 0.84141,-2.14531 2.11211,-2.88828 1.13867,-0.65976 2.07969,-1.15508 2.07969,-2.60741 0,-1.32031 -0.67656,-1.96367 -1.63398,-1.96367 -1.33672,0 -1.60079,0.92421 -1.74922,2.14531 l -1.10586,-0.14844 c 0.16523,-1.74962 0.875,-3.03672 2.82226,-3.03672 1.84844,0 2.77266,1.36993 2.77266,3.10273 0,1.69961 -0.92422,2.37617 -2.27774,3.18476 -1.73281,1.03985 -1.91445,1.32032 -1.91445,2.21172 0,0.9242 0.41289,1.766 1.45235,1.766 0.94062,0 1.33671,-0.809 1.51835,-1.61756 l 1.07266,0.16484"
         style="fill:#000000;fill-opacity:1;fill-rule:nonzero;stroke:#000000;stroke-width:0.4;stroke-miterlimit:4;stroke-dasharray:none"
         id="path30-4-3" /><path
         inkscape:connector-curvature="0"
         d="m 17.3046,-54.200783 5.3637,0 0,0.99024 -4.2578,0 0,3.05312 3.5152,0 0,0.99024 -3.5152,0 0,2.5746 4.2578,0 0,0.98985 -5.3637,0 0,-8.59805"
         style="fill:#000000;fill-opacity:1;fill-rule:nonzero;stroke:#000000;stroke-width:0.4;stroke-miterlimit:4;stroke-dasharray:none"
         id="path32-9-6" /><path
         inkscape:connector-curvature="0"
         d="m 26.5757,-54.200783 1.1055,0 0,4.96757 -0.0988,2.24453 0.0328,0.0328 3.334,-7.24492 1.3695,0 0,8.59805 -1.1059,0 0,-4.98399 0.0992,-2.22773 -0.0332,-0.0328 -3.3335,7.24453 -1.3696,0 0,-8.59805"
         style="fill:#000000;fill-opacity:1;fill-rule:nonzero;stroke:#000000;stroke-width:0.4;stroke-miterlimit:4;stroke-dasharray:none"
         id="path34-9-7" /><path
         inkscape:connector-curvature="0"
         d="m 36.4402,-51.791413 c 0.2644,-1.53476 1.2711,-2.55781 2.8718,-2.55781 1.5844,0 2.7231,0.92421 2.7231,2.55781 0,0.8914 -0.4125,1.58476 -1.1883,2.01368 l -1.832,0.80859 c -0.6602,0.29726 -1.1551,0.52813 -1.1551,1.33672 0,0.77577 0.6934,1.13866 1.4027,1.13866 0.9407,0 1.3864,-0.59374 1.5844,-1.43553 l 1.0563,0.31328 c -0.3465,1.33711 -1.1883,2.16211 -2.6243,2.16211 -1.3531,0 -2.525,-0.8086 -2.525,-2.26095 0,-1.61719 1.1883,-1.94765 2.4426,-2.47577 0.8418,-0.3465 1.7328,-0.61055 1.7328,-1.66642 0,-0.95741 -0.7093,-1.45233 -1.6172,-1.45233 -1.155,0 -1.6667,0.77539 -1.8816,1.83164 l -0.9902,-0.31368"
         style="fill:#000000;fill-opacity:1;fill-rule:nonzero;stroke:#000000;stroke-width:0.4;stroke-miterlimit:4;stroke-dasharray:none"
         id="path36-0-5" /><path
         inkscape:connector-curvature="0"
         d="m 49.012,-45.453903 c -1.4195,0 -3.0531,-1.02306 -3.0531,-4.45587 0,-3.44921 1.6668,-4.43945 3.0531,-4.43945 3.0036,0 3.0532,3.74609 3.0532,4.43945 0,3.46563 -1.6836,4.45587 -3.0532,4.45587 z m 0,-1.03986 c 1.6668,0 1.8977,-2.1453 1.8977,-3.41601 0,-1.25429 -0.2309,-3.3996 -1.8977,-3.3996 -1.6667,0 -1.898,2.14531 -1.898,3.3996 0,1.27071 0.2313,3.41601 1.898,3.41601"
         style="fill:#000000;fill-opacity:1;fill-rule:evenodd;stroke:#000000;stroke-width:0.4;stroke-miterlimit:4;stroke-dasharray:none"
         id="path38-2-3" /><path
         inkscape:connector-curvature="0"
         d="m 57.4081,-49.530093 0,2.93751 1.7821,0 c 0.9902,0 1.4523,-0.57774 1.4523,-1.35351 0,-0.97344 -0.7094,-1.584 -1.7824,-1.584 l -1.452,0 z m -1.1058,-4.67069 1.1058,0 0,3.68046 1.6008,0 2.1949,-3.89492 0.9571,0.57774 -2.1121,3.48202 c 1.0394,0.31368 1.7488,1.35352 1.7488,2.40939 0,1.66719 -1.1387,2.34336 -2.5742,2.34336 l -2.9211,0 0,-8.59805"
         style="fill:#000000;fill-opacity:1;fill-rule:evenodd;stroke:#000000;stroke-width:0.4;stroke-miterlimit:4;stroke-dasharray:none"
         id="path40-3-5" /><path
         inkscape:connector-curvature="0"
         d="m 66.8105,-54.200783 3.532,0 0,0.99024 -1.2215,0 0,6.61796 1.2215,0 0,0.98985 -3.532,0 0,-0.98985 1.2051,0 0,-6.61796 -1.2051,0 0,-0.99024"
         style="fill:#000000;fill-opacity:1;fill-rule:nonzero;stroke:#000000;stroke-width:0.4;stroke-miterlimit:4;stroke-dasharray:none"
         id="path42-7-6" /><path
         inkscape:connector-curvature="0"
         d="m 77.1874,-45.602733 -1.1058,0 0,-8.59805 1.1058,0 0,4.02694 0.3793,0 3.4825,-4.2414 0.8418,0.70938 -3.3504,4.04336 2.8547,3.61445 -0.8415,0.66016 -2.9539,-3.87852 -0.4125,0 0,3.66368"
         style="fill:#000000;fill-opacity:1;fill-rule:nonzero;stroke:#000000;stroke-width:0.4;stroke-miterlimit:4;stroke-dasharray:none"
         id="path44-1-2" /><path
         inkscape:connector-curvature="0"
         d="m 86.3093,-50.421493 3.664072,0 0,1.03984 -3.664072,0 0,-1.03984 z"
         style="fill:#000000;fill-opacity:1;fill-rule:nonzero;stroke:#000000;stroke-width:0.4;stroke-miterlimit:4;stroke-dasharray:none"
         id="path46-1-9" /><path
         inkscape:connector-curvature="0"
         d="m 99.4257,-50.801173 0.8578,-3.61407 1.08951,0.29727 -2.78911,10.92496 -1.320288,0 -2.789112,-10.92496 1.089112,-0.29727 0.8582,3.61407 3.003888,0 z m -0.264,0.99063 -2.4758,0 1.221112,5.14882 0.0332,0 1.221488,-5.14882"
         style="fill:#000000;fill-opacity:1;fill-rule:evenodd;stroke:#000000;stroke-width:0.4;stroke-miterlimit:4;stroke-dasharray:none"
         id="path48-2-1" /><path
         inkscape:connector-curvature="0"
         d="m 106.5345,-50.503903 1.848,0 c 1.205,0 2.492,0.74257 2.492,2.55781 0,1.25429 -0.775,2.34336 -2.772,2.34336 l -2.674,0 0,-8.59805 1.106,0 0,3.69688 z m 0,0.99022 0,2.9211 1.518,0 c 0.908,0 1.667,-0.26407 1.667,-1.43594 0,-0.99024 -0.578,-1.48516 -1.667,-1.48516 l -1.518,0"
         style="fill:#000000;fill-opacity:1;fill-rule:evenodd;stroke:#000000;stroke-width:0.4;stroke-miterlimit:4;stroke-dasharray:none"
         id="path50-6-2" /><path
         inkscape:connector-curvature="0"
         d="m 116.3165,-50.503903 1.849,0 c 1.204,0 2.491,0.74257 2.491,2.55781 0,1.25429 -0.775,2.34336 -2.772,2.34336 l -2.674,0 0,-8.59805 1.106,0 0,3.69688 z m 0,0.99022 0,2.9211 1.518,0 c 0.908,0 1.667,-0.26407 1.667,-1.43594 0,-0.99024 -0.577,-1.48516 -1.667,-1.48516 l -1.518,0"
         style="fill:#000000;fill-opacity:1;fill-rule:evenodd;stroke:#000000;stroke-width:0.4;stroke-miterlimit:4;stroke-dasharray:none"
         id="path52-2-7" /><path
         inkscape:connector-curvature="0"
         d="m 125.1255,-54.200783 5.611,0 0,0.99024 -4.505,0 0,7.60781 -1.106,0 0,-8.59805"
         style="fill:#000000;fill-opacity:1;fill-rule:nonzero;stroke:#000000;stroke-width:0.4;stroke-miterlimit:4;stroke-dasharray:none"
         id="path54-5-0" /><path
         inkscape:connector-curvature="0"
         d="m 135.2875,-54.200783 3.532,0 0,0.99024 -1.222,0 0,6.61796 1.222,0 0,0.98985 -3.532,0 0,-0.98985 1.205,0 0,-6.61796 -1.205,0 0,-0.99024"
         style="fill:#000000;fill-opacity:1;fill-rule:nonzero;stroke:#000000;stroke-width:0.4;stroke-miterlimit:4;stroke-dasharray:none"
         id="path56-5-9" /><path
         inkscape:connector-curvature="0"
         d="m 145.6635,-45.602733 -1.105,0 0,-8.59805 1.105,0 0,4.02694 0.38,0 3.482,-4.2414 0.842,0.70938 -3.35,4.04336 2.854,3.61445 -0.841,0.66016 -2.954,-3.87852 -0.413,0 0,3.66368"
         style="fill:#000000;fill-opacity:1;fill-rule:nonzero;stroke:#000000;stroke-width:0.4;stroke-miterlimit:4;stroke-dasharray:none"
         id="path58-0-3" /><path
         inkscape:connector-curvature="0"
         d="m 158.1525,-51.857043 0.792,-2.5582 1.089,0.3961 -2.706,8.41641 -1.419,0 -2.707,-8.41641 1.089,-0.3961 0.809,2.5582 3.053,0 z m -0.313,0.98986 -2.443,0 1.221,3.97733 1.222,-3.97733"
         style="fill:#000000;fill-opacity:1;fill-rule:evenodd;stroke:#000000;stroke-width:0.4;stroke-miterlimit:4;stroke-dasharray:none"
         id="path60-0-6" /><path
         inkscape:connector-curvature="0"
         d="m 165.8725,-54.200783 1.105,0 0,7.6082 2.327,0 0,0.98985 -5.809,0 0,-0.98985 2.377,0 0,-7.6082"
         style="fill:#000000;fill-opacity:1;fill-rule:nonzero;stroke:#000000;stroke-width:0.4;stroke-miterlimit:4;stroke-dasharray:none"
         id="path62-3-0" /><path
         inkscape:connector-curvature="0"
         d="m 174.4165,-54.200783 3.532,0 0,0.99024 -1.222,0 0,6.61796 1.222,0 0,0.98985 -3.532,0 0,-0.98985 1.205,0 0,-6.61796 -1.205,0 0,-0.99024"
         style="fill:#000000;fill-opacity:1;fill-rule:nonzero;stroke:#000000;stroke-width:0.4;stroke-miterlimit:4;stroke-dasharray:none"
         id="path64-9-6" /><path
         inkscape:connector-curvature="0"
         d="m 185.9655,-45.453903 c -1.42,0 -3.053,-1.02306 -3.053,-4.45587 0,-3.44921 1.666,-4.43945 3.053,-4.43945 3.003,0 3.053,3.74609 3.053,4.43945 0,3.46563 -1.684,4.45587 -3.053,4.45587 z m 0,-1.03986 c 1.666,0 1.897,-2.1453 1.897,-3.41601 0,-1.25429 -0.231,-3.3996 -1.897,-3.3996 -1.668,0 -1.898,2.14531 -1.898,3.3996 0,1.27071 0.23,3.41601 1.898,3.41601"
         style="fill:#000000;fill-opacity:1;fill-rule:evenodd;stroke:#000000;stroke-width:0.4;stroke-miterlimit:4;stroke-dasharray:none"
         id="path66-2-2" /><path
         inkscape:connector-curvature="0"
         d="m 192.8755,-54.200783 1.106,0 0,4.96757 -0.099,2.24453 0.033,0.0328 3.334,-7.24492 1.37,0 0,8.59805 -1.106,0 0,-4.98399 0.099,-2.22773 -0.034,-0.0328 -3.333,7.24453 -1.37,0 0,-8.59805"
         style="fill:#000000;fill-opacity:1;fill-rule:nonzero;stroke:#000000;stroke-width:0.4;stroke-miterlimit:4;stroke-dasharray:none"
         id="path68-2-6" /><path
         inkscape:connector-curvature="0"
         d="m 202.7405,-51.791413 c 0.264,-1.53476 1.271,-2.55781 2.872,-2.55781 1.584,0 2.723,0.92421 2.723,2.55781 0,0.8914 -0.413,1.58476 -1.189,2.01368 l -1.831,0.80859 c -0.661,0.29726 -1.156,0.52813 -1.156,1.33672 0,0.77577 0.694,1.13866 1.403,1.13866 0.941,0 1.386,-0.59374 1.584,-1.43553 l 1.057,0.31328 c -0.347,1.33711 -1.189,2.16211 -2.625,2.16211 -1.353,0 -2.525,-0.8086 -2.525,-2.26095 0,-1.61719 1.189,-1.94765 2.443,-2.47577 0.842,-0.3465 1.733,-0.61055 1.733,-1.66642 0,-0.95741 -0.71,-1.45233 -1.617,-1.45233 -1.156,0 -1.667,0.77539 -1.882,1.83164 l -0.99,-0.31368"
         style="fill:#000000;fill-opacity:1;fill-rule:nonzero;stroke:#000000;stroke-width:0.4;stroke-miterlimit:4;stroke-dasharray:none"
         id="path70-9-1" /><path
         inkscape:connector-curvature="0"
         d="m 212.0105,-54.200783 6.469,0 0,0.99024 -4.786,0 4.654,10.01753 -5.859,0 0,-0.9902 4.192,0 -4.67,-10.01757"
         style="fill:#000000;fill-opacity:1;fill-rule:nonzero;stroke:#000000;stroke-width:0.4;stroke-miterlimit:4;stroke-dasharray:none"
         id="path72-0-8" /><path
         inkscape:connector-curvature="0"
         d="m 222.66749,-54.200783 5.363,0 0,0.99024 -4.258,0 0,3.05312 3.516,0 0,0.99024 -3.516,0 0,2.5746 4.258,0 0,0.98985 -5.363,0 0,-8.59805"
         style="fill:#000000;fill-opacity:1;fill-rule:nonzero;stroke:#000000;stroke-width:0.4;stroke-miterlimit:4;stroke-dasharray:none"
         id="path74-7-7" /><path
         inkscape:connector-curvature="0"
         d="m 231.93849,-54.200783 1.105,0 0,4.96757 -0.099,2.24453 0.033,0.0328 3.334,-7.24492 1.37,0 0,8.59805 -1.106,0 0,-4.98399 0.099,-2.22773 -0.033,-0.0328 -3.334,7.24453 -1.369,0 0,-8.59805"
         style="fill:#000000;fill-opacity:1;fill-rule:nonzero;stroke:#000000;stroke-width:0.4;stroke-miterlimit:4;stroke-dasharray:none"
         id="path76-7-9" /><path
         inkscape:connector-curvature="0"
         d="m 244.06449,-54.200783 1.105,0 0,7.6082 2.327,0 0,0.98985 -5.809,0 0,-0.98985 2.377,0 0,-7.6082"
         style="fill:#000000;fill-opacity:1;fill-rule:nonzero;stroke:#000000;stroke-width:0.4;stroke-miterlimit:4;stroke-dasharray:none"
         id="path78-2-2" /><path
         inkscape:connector-curvature="0"
         d="m 252.98849,-49.530093 0,2.93751 1.782,0 c 0.99,0 1.452,-0.57774 1.452,-1.35351 0,-0.97344 -0.709,-1.584 -1.782,-1.584 l -1.452,0 z m -1.106,-4.67069 1.106,0 0,3.68046 1.601,0 2.194,-3.89492 0.957,0.57774 -2.112,3.48202 c 1.04,0.31368 1.749,1.35352 1.749,2.40939 0,1.66719 -1.138,2.34336 -2.574,2.34336 l -2.921,0 0,-8.59805"
         style="fill:#000000;fill-opacity:1;fill-rule:evenodd;stroke:#000000;stroke-width:0.4;stroke-miterlimit:4;stroke-dasharray:none"
         id="path80-7-0" /><path
         inkscape:connector-curvature="0"
         d="m 261.46649,-45.602733 0,-6.32071 c 0,-1.25429 0.825,-2.42578 2.69,-2.42578 1.898,0 2.707,1.22109 2.707,2.36016 l 0,6.38633 -1.106,0 0,-5.8582 c 0,-1.23791 -0.297,-1.84844 -1.683,-1.84844 -1.139,0 -1.502,0.59375 -1.502,1.84844 l 0,5.8582 -1.106,0"
         style="fill:#000000;fill-opacity:1;fill-rule:nonzero;stroke:#000000;stroke-width:0.4;stroke-miterlimit:4;stroke-dasharray:none"
         id="path82-3-2" /><path
         inkscape:connector-curvature="0"
         d="m 273.94749,-51.774613 1.931,4.53828 0.033,0 0.214,-6.96445 1.172,0 -0.346,8.59805 -1.453,0 -1.551,-3.72931 -1.551,3.72931 -1.453,0 -0.346,-8.59805 1.172,0 0.214,6.96445 0.033,0 1.931,-4.53828"
         style="fill:#000000;fill-opacity:1;fill-rule:nonzero;stroke:#000000;stroke-width:0.4;stroke-miterlimit:4;stroke-dasharray:none"
         id="path84-4-3" /></g></g></svg>