<?xml version="1.0" encoding="UTF-8" standalone="no"?>
<!-- Created with Inkscape (http://www.inkscape.org/) -->

<svg
   xmlns:dc="http://purl.org/dc/elements/1.1/"
   xmlns:cc="http://creativecommons.org/ns#"
   xmlns:rdf="http://www.w3.org/1999/02/22-rdf-syntax-ns#"
   xmlns:svg="http://www.w3.org/2000/svg"
   xmlns="http://www.w3.org/2000/svg"
   xmlns:sodipodi="http://sodipodi.sourceforge.net/DTD/sodipodi-0.dtd"
   xmlns:inkscape="http://www.inkscape.org/namespaces/inkscape"
   id="svg2"
   version="1.1"
   inkscape:version="0.48.4 r9939"
   width="347.5"
   height="131.25"
   xml:space="preserve"
   sodipodi:docname="sappz.svg"><metadata
     id="metadata8"><rdf:RDF><cc:Work
         rdf:about=""><dc:format>image/svg+xml</dc:format><dc:type
           rdf:resource="http://purl.org/dc/dcmitype/StillImage" /><dc:title /></cc:Work></rdf:RDF></metadata><defs
     id="defs6" /><sodipodi:namedview
     pagecolor="#ffffff"
     bordercolor="#666666"
     borderopacity="1"
     objecttolerance="10"
     gridtolerance="10"
     guidetolerance="10"
     inkscape:pageopacity="0"
     inkscape:pageshadow="2"
     inkscape:window-width="1918"
     inkscape:window-height="1059"
     id="namedview4"
     showgrid="false"
     inkscape:zoom="2.0028778"
     inkscape:cx="282.79364"
     inkscape:cy="-4.8630442"
     inkscape:window-x="1680"
     inkscape:window-y="19"
     inkscape:window-maximized="1"
     inkscape:current-layer="g10" /><g
     id="g10"
     inkscape:groupmode="layer"
     inkscape:label="ink_ext_XXXXXX"
     transform="matrix(1.25,0,0,-1.25,0,131.25)"><g
       transform="matrix(0.09835303,0,0,0.09836843,2.5346414,0.53122804)"
       id="g3071"><path
         inkscape:connector-curvature="0"
         d="m 2115.99,532.332 228.97,0 1.42,453.297 241.03,0 0,-715.207 129.15,0"
         style="fill:none;stroke:#231f20;stroke-width:34.26399994;stroke-linecap:butt;stroke-linejoin:miter;stroke-miterlimit:3.8636899;stroke-opacity:1;stroke-dasharray:none"
         id="path14-2" /><path
         inkscape:connector-curvature="0"
         id="path16-91"
         transform="matrix(8.001252,0,0,-8,2.436398,1048.4258)"
         d="m 125.65625,42.03125 c -2.68346,0 -4.81476,0.84425 -6.5,2.53125 -1.61062,1.687125 -2.46875,3.831 -2.46875,6.4375 l 0,36.03125 8.96875,0 0,-18.03125 27,0 0.1875,18.03125 16.28125,0 0,14.875 8.96875,0 0,-14.875 9.5625,0 34.96875,0 0.0312,14.875 8.96875,0 0,-14.875 9.5625,0 8.59375,0 0.0312,0 8.78125,0 c 2.45212,0 4.57903,-0.84425 6.34375,-2.53125 1.76222,-1.685625 2.6875,-3.765625 2.6875,-6.21875 l 0.0312,-0.21875 0,-27.0625 c 0,-2.683625 -0.84401,-4.84525 -2.53125,-6.53125 -1.60975,-1.610875 -3.84792,-2.4375 -6.53125,-2.4375 l -35.96875,0 0,36.03125 -8.5,0 0,-27.0625 c 0,-2.683625 -0.84526,-4.84525 -2.53125,-6.53125 -1.60975,-1.610875 -3.81667,-2.4375 -6.5,-2.4375 l -35.96875,0 0,36.03125 -7.4375,0 0,-27.0625 c 0,-2.1465 -0.98905,-4.207625 -2.90625,-6.125 -1.91595,-1.840375 -3.97909,-2.84375 -6.125,-2.84375 l -27,0 z m 0,8.96875 27,0 0,9.03125 -27,0 0,-9.03125 z m 52.4375,0 27,0 0,27.0625 -27,0 0,-27.0625 z m 53.5,0 27,0 0,27.0625 -27,0 0,-27.0625 z"
         style="fill:#274b86;fill-opacity:1;fill-rule:nonzero;stroke:none" /><path
         inkscape:connector-curvature="0"
         d="m 936.516,532.332 c -88.719,0 -69.86,180.02 -142.696,180.02 -74.672,0 -78.382,-287.559 -148.289,-287.559 -117.316,0 -118.336,592.357 -220.547,592.357 -102.207,0 -130.402,-747.49 -263.906,-749.041 -59.543,-0.691 -54.957,0 -54.957,0"
         style="fill:none;stroke:#231f20;stroke-width:34.26399994;stroke-linecap:butt;stroke-linejoin:miter;stroke-miterlimit:3.8636899;stroke-opacity:1;stroke-dasharray:none"
         id="path24-2" /><path
         inkscape:connector-curvature="0"
         d="m 483.238,913.551 c -15.652,58.929 -34.258,97.429 -58.254,97.429 -102.207,0 -130.808,-738.125 -264.312,-738.125 -86.1915,0 -121.0236,0 -121.0236,0"
         style="fill:none;stroke:#f47216;stroke-width:74.4240036;stroke-linecap:butt;stroke-linejoin:miter;stroke-miterlimit:3.8636899;stroke-opacity:1;stroke-dasharray:none"
         id="path26-7" /><path
         inkscape:connector-curvature="0"
         d="m 2476.76,985.629 110.65,0 0,-718.02 150.9,0"
         style="fill:none;stroke:#f47216;stroke-width:68.52899933;stroke-linecap:butt;stroke-linejoin:miter;stroke-miterlimit:3.8636899;stroke-opacity:1;stroke-dasharray:none"
         id="path28-0" /><path
         inkscape:connector-curvature="0"
         d="m 92.1289,97.2109 c -2.8047,13.8671 -10.3984,24.9221 -25.9101,24.9221 -15.6758,0 -25.5782,-13.203 -25.5782,-28.0549 0,-16.1718 8.4141,-21.4531 21.1211,-28.8828 11.3867,-6.5976 20.7969,-11.5508 20.7969,-26.0742 0,-13.2031 -6.7656,-19.6367 -16.3398,-19.6367 -13.3672,0 -16.0079,9.2422 -17.4922,21.4531 L 37.668,39.4531 C 39.3203,21.957 46.418,9.08594 65.8906,9.08594 c 18.4844,0 27.7266,13.69926 27.7266,31.02736 0,16.9961 -9.2422,23.7617 -22.7774,31.8476 -17.3281,10.3985 -19.1445,13.2032 -19.1445,22.1172 0,9.2419 4.1289,17.6599 14.5235,17.6599 9.4062,0 13.3671,-8.09 15.1835,-16.1755 l 10.7266,1.6484"
         style="fill:#231f20;fill-opacity:1;fill-rule:nonzero;stroke:none"
         id="path30" /><path
         inkscape:connector-curvature="0"
         d="m 139.781,10.5703 53.637,0 0,9.9024 -42.578,0 0,30.5312 35.152,0 0,9.9024 -35.152,0 0,25.746 42.578,0 0,9.8985 -53.637,0 0,-85.9805"
         style="fill:#231f20;fill-opacity:1;fill-rule:nonzero;stroke:none"
         id="path32" /><path
         inkscape:connector-curvature="0"
         d="m 232.492,10.5703 11.055,0 0,49.6758 -0.988,22.4453 0.328,0.3281 33.34,-72.4492 13.695,0 0,85.9805 -11.059,0 0,-49.8399 0.992,-22.2773 -0.332,-0.3281 -33.335,72.4453 -13.696,0 0,-85.9805"
         style="fill:#231f20;fill-opacity:1;fill-rule:nonzero;stroke:none"
         id="path34" /><path
         inkscape:connector-curvature="0"
         d="m 331.137,34.6641 c 2.644,-15.3477 12.711,-25.57816 28.718,-25.57816 15.844,0 27.231,9.24216 27.231,25.57816 0,8.914 -4.125,15.8476 -11.883,20.1367 l -18.32,8.0859 c -6.602,2.9727 -11.551,5.2813 -11.551,13.3672 0,7.7578 6.934,11.3867 14.027,11.3867 9.407,0 13.864,-5.9375 15.844,-14.3554 l 10.563,3.1328 c -3.465,13.3711 -11.883,21.6211 -26.243,21.6211 -13.531,0 -25.25,-8.086 -25.25,-22.6094 0,-16.1719 11.883,-19.4766 24.426,-24.7578 8.418,-3.4649 17.328,-6.1055 17.328,-16.6641 0,-9.5742 -7.093,-14.5234 -16.172,-14.5234 -11.55,0 -16.667,7.7539 -18.816,18.3164 l -9.902,-3.1367"
         style="fill:#231f20;fill-opacity:1;fill-rule:nonzero;stroke:none"
         id="path36" /><path
         inkscape:connector-curvature="0"
         d="m 456.855,98.0391 c -14.195,0 -30.531,-10.2305 -30.531,-44.5586 0,-34.4922 16.668,-44.39456 30.531,-44.39456 30.036,0 30.532,37.46096 30.532,44.39456 0,34.6562 -16.836,44.5586 -30.532,44.5586 z m 0,-10.3985 c 16.668,0 18.977,-21.4531 18.977,-34.1601 0,-12.543 -2.309,-33.9961 -18.977,-33.9961 -16.667,0 -18.98,21.4531 -18.98,33.9961 0,12.707 2.313,34.1601 18.98,34.1601"
         style="fill:#231f20;fill-opacity:1;fill-rule:evenodd;stroke:none"
         id="path38" /><path
         inkscape:connector-curvature="0"
         d="m 540.816,57.2773 0,29.375 17.821,0 c 9.902,0 14.523,-5.7773 14.523,-13.5351 0,-9.7344 -7.094,-15.8399 -17.824,-15.8399 l -14.52,0 z m -11.058,-46.707 11.058,0 0,36.8047 16.008,0 21.949,-38.94922 9.571,5.77732 -21.121,34.8203 c 10.394,3.1368 17.488,13.5352 17.488,24.0938 0,16.6719 -11.387,23.4336 -25.742,23.4336 l -29.211,0 0,-85.9805"
         style="fill:#231f20;fill-opacity:1;fill-rule:evenodd;stroke:none"
         id="path40" /><path
         inkscape:connector-curvature="0"
         d="m 634.84,10.5703 35.32,0 0,9.9024 -12.215,0 0,66.1796 12.215,0 0,9.8985 -35.32,0 0,-9.8985 12.051,0 0,-66.1796 -12.051,0 0,-9.9024"
         style="fill:#231f20;fill-opacity:1;fill-rule:nonzero;stroke:none"
         id="path42" /><path
         inkscape:connector-curvature="0"
         d="m 738.609,96.5508 -11.058,0 0,-85.9805 11.058,0 0,40.2695 3.793,0 34.825,-42.41402 8.418,7.09372 -33.504,40.4336 28.547,36.1446 -8.415,6.6015 -29.539,-38.7851 -4.125,0 0,36.6367"
         style="fill:#231f20;fill-opacity:1;fill-rule:nonzero;stroke:none"
         id="path44" /><path
         inkscape:connector-curvature="0"
         d="m 829.828,48.3633 36.6406,0 0,10.3984 -36.6406,0 0,-10.3984 z"
         style="fill:#231f20;fill-opacity:1;fill-rule:nonzero;stroke:none"
         id="path46" /><path
         inkscape:connector-curvature="0"
         d="m 960.992,44.5664 8.578,-36.14062 10.895,2.97262 -27.891,109.2496 -13.203,0 -27.891,-109.2496 10.891,-2.97262 8.582,36.14062 30.039,0 z m -2.64,9.9063 -24.758,0 12.211,51.4883 0.332,0 12.215,-51.4883"
         style="fill:#231f20;fill-opacity:1;fill-rule:evenodd;stroke:none"
         id="path48" /><path
         inkscape:connector-curvature="0"
         d="m 1032.08,47.5391 18.48,0 c 12.05,0 24.92,7.4257 24.92,25.5781 0,12.543 -7.75,23.4336 -27.72,23.4336 l -26.74,0 0,-85.9805 11.06,0 0,36.9688 z m 0,9.9023 0,29.2109 15.18,0 c 9.08,0 16.67,-2.6406 16.67,-14.3593 0,-9.9024 -5.78,-14.8516 -16.67,-14.8516 l -15.18,0"
         style="fill:#231f20;fill-opacity:1;fill-rule:evenodd;stroke:none"
         id="path50" /><path
         inkscape:connector-curvature="0"
         d="m 1129.9,47.5391 18.49,0 c 12.04,0 24.91,7.4257 24.91,25.5781 0,12.543 -7.75,23.4336 -27.72,23.4336 l -26.74,0 0,-85.9805 11.06,0 0,36.9688 z m 0,9.9023 0,29.2109 15.18,0 c 9.08,0 16.67,-2.6406 16.67,-14.3593 0,-9.9024 -5.77,-14.8516 -16.67,-14.8516 l -15.18,0"
         style="fill:#231f20;fill-opacity:1;fill-rule:evenodd;stroke:none"
         id="path52" /><path
         inkscape:connector-curvature="0"
         d="m 1217.99,10.5703 56.11,0 0,9.9024 -45.05,0 0,76.0781 -11.06,0 0,-85.9805"
         style="fill:#231f20;fill-opacity:1;fill-rule:nonzero;stroke:none"
         id="path54" /><path
         inkscape:connector-curvature="0"
         d="m 1319.61,10.5703 35.32,0 0,9.9024 -12.22,0 0,66.1796 12.22,0 0,9.8985 -35.32,0 0,-9.8985 12.05,0 0,-66.1796 -12.05,0 0,-9.9024"
         style="fill:#231f20;fill-opacity:1;fill-rule:nonzero;stroke:none"
         id="path56" /><path
         inkscape:connector-curvature="0"
         d="m 1423.37,96.5508 -11.05,0 0,-85.9805 11.05,0 0,40.2695 3.8,0 34.82,-42.41402 8.42,7.09372 -33.5,40.4336 28.54,36.1446 -8.41,6.6015 -29.54,-38.7851 -4.13,0 0,36.6367"
         style="fill:#231f20;fill-opacity:1;fill-rule:nonzero;stroke:none"
         id="path58" /><path
         inkscape:connector-curvature="0"
         d="m 1548.26,34.0078 7.92,-25.58202 10.89,3.96092 -27.06,84.1641 -14.19,0 -27.07,-84.1641 10.89,-3.96092 8.09,25.58202 30.53,0 z m -3.13,9.8985 -24.43,0 12.21,39.7734 12.22,-39.7734"
         style="fill:#231f20;fill-opacity:1;fill-rule:evenodd;stroke:none"
         id="path60" /><path
         inkscape:connector-curvature="0"
         d="m 1625.46,10.5703 11.05,0 0,76.082 23.27,0 0,9.8985 -58.09,0 0,-9.8985 23.77,0 0,-76.082"
         style="fill:#231f20;fill-opacity:1;fill-rule:nonzero;stroke:none"
         id="path62" /><path
         inkscape:connector-curvature="0"
         d="m 1710.9,10.5703 35.32,0 0,9.9024 -12.22,0 0,66.1796 12.22,0 0,9.8985 -35.32,0 0,-9.8985 12.05,0 0,-66.1796 -12.05,0 0,-9.9024"
         style="fill:#231f20;fill-opacity:1;fill-rule:nonzero;stroke:none"
         id="path64" /><path
         inkscape:connector-curvature="0"
         d="m 1826.39,98.0391 c -14.2,0 -30.53,-10.2305 -30.53,-44.5586 0,-34.4922 16.66,-44.39456 30.53,-44.39456 30.03,0 30.53,37.46096 30.53,44.39456 0,34.6562 -16.84,44.5586 -30.53,44.5586 z m 0,-10.3985 c 16.66,0 18.97,-21.4531 18.97,-34.1601 0,-12.543 -2.31,-33.9961 -18.97,-33.9961 -16.68,0 -18.98,21.4531 -18.98,33.9961 0,12.707 2.3,34.1601 18.98,34.1601"
         style="fill:#231f20;fill-opacity:1;fill-rule:evenodd;stroke:none"
         id="path66" /><path
         inkscape:connector-curvature="0"
         d="m 1895.49,10.5703 11.06,0 0,49.6758 -0.99,22.4453 0.33,0.3281 33.34,-72.4492 13.7,0 0,85.9805 -11.06,0 0,-49.8399 0.99,-22.2773 -0.34,-0.3281 -33.33,72.4453 -13.7,0 0,-85.9805"
         style="fill:#231f20;fill-opacity:1;fill-rule:nonzero;stroke:none"
         id="path68" /><path
         inkscape:connector-curvature="0"
         d="m 1994.14,34.6641 c 2.64,-15.3477 12.71,-25.57816 28.72,-25.57816 15.84,0 27.23,9.24216 27.23,25.57816 0,8.914 -4.13,15.8476 -11.89,20.1367 l -18.31,8.0859 c -6.61,2.9727 -11.56,5.2813 -11.56,13.3672 0,7.7578 6.94,11.3867 14.03,11.3867 9.41,0 13.86,-5.9375 15.84,-14.3554 l 10.57,3.1328 c -3.47,13.3711 -11.89,21.6211 -26.25,21.6211 -13.53,0 -25.25,-8.086 -25.25,-22.6094 0,-16.1719 11.89,-19.4766 24.43,-24.7578 8.42,-3.4649 17.33,-6.1055 17.33,-16.6641 0,-9.5742 -7.1,-14.5234 -16.17,-14.5234 -11.56,0 -16.67,7.7539 -18.82,18.3164 l -9.9,-3.1367"
         style="fill:#231f20;fill-opacity:1;fill-rule:nonzero;stroke:none"
         id="path70" /><path
         inkscape:connector-curvature="0"
         d="m 2086.84,10.5703 64.69,0 0,9.9024 -47.86,0 46.54,100.1753 -58.59,0 0,-9.902 41.92,0 -46.7,-100.1757"
         style="fill:#231f20;fill-opacity:1;fill-rule:nonzero;stroke:none"
         id="path72" /><path
         inkscape:connector-curvature="0"
         d="m 2193.41,10.5703 53.63,0 0,9.9024 -42.58,0 0,30.5312 35.16,0 0,9.9024 -35.16,0 0,25.746 42.58,0 0,9.8985 -53.63,0 0,-85.9805"
         style="fill:#231f20;fill-opacity:1;fill-rule:nonzero;stroke:none"
         id="path74" /><path
         inkscape:connector-curvature="0"
         d="m 2286.12,10.5703 11.05,0 0,49.6758 -0.99,22.4453 0.33,0.3281 33.34,-72.4492 13.7,0 0,85.9805 -11.06,0 0,-49.8399 0.99,-22.2773 -0.33,-0.3281 -33.34,72.4453 -13.69,0 0,-85.9805"
         style="fill:#231f20;fill-opacity:1;fill-rule:nonzero;stroke:none"
         id="path76" /><path
         inkscape:connector-curvature="0"
         d="m 2407.38,10.5703 11.05,0 0,76.082 23.27,0 0,9.8985 -58.09,0 0,-9.8985 23.77,0 0,-76.082"
         style="fill:#231f20;fill-opacity:1;fill-rule:nonzero;stroke:none"
         id="path78" /><path
         inkscape:connector-curvature="0"
         d="m 2496.62,57.2773 0,29.375 17.82,0 c 9.9,0 14.52,-5.7773 14.52,-13.5351 0,-9.7344 -7.09,-15.8399 -17.82,-15.8399 l -14.52,0 z m -11.06,-46.707 11.06,0 0,36.8047 16.01,0 21.94,-38.94922 9.57,5.77732 -21.12,34.8203 c 10.4,3.1368 17.49,13.5352 17.49,24.0938 0,16.6719 -11.38,23.4336 -25.74,23.4336 l -29.21,0 0,-85.9805"
         style="fill:#231f20;fill-opacity:1;fill-rule:evenodd;stroke:none"
         id="path80" /><path
         inkscape:connector-curvature="0"
         d="m 2581.4,96.5508 0,-63.207 c 0,-12.543 8.25,-24.25786 26.9,-24.25786 18.98,0 27.07,12.21096 27.07,23.60156 l 0,63.8633 -11.06,0 0,-58.582 c 0,-12.379 -2.97,-18.4844 -16.83,-18.4844 -11.39,0 -15.02,5.9375 -15.02,18.4844 l 0,58.582 -11.06,0"
         style="fill:#231f20;fill-opacity:1;fill-rule:nonzero;stroke:none"
         id="path82" /><path
         inkscape:connector-curvature="0"
         d="m 2706.21,34.832 19.31,45.3828 0.33,0 2.14,-69.6445 11.72,0 -3.46,85.9805 -14.53,0 -15.51,-37.293 -15.51,37.293 -14.53,0 -3.46,-85.9805 11.72,0 2.14,69.6445 0.33,0 19.31,-45.3828"
         style="fill:#231f20;fill-opacity:1;fill-rule:nonzero;stroke:none"
         id="path84" /></g></g></svg>