<?xml version="1.0" encoding="utf-8"?>
<!-- Generator: Adobe Illustrator 14.0.0, SVG Export Plug-In . SVG Version: 6.00 Build 43363)  -->
<!DOCTYPE svg PUBLIC "-//W3C//DTD SVG 1.1//EN" "http://www.w3.org/Graphics/SVG/1.1/DTD/svg11.dtd">
<svg version="1.1" id="Ebene_1" xmlns="http://www.w3.org/2000/svg" xmlns:xlink="http://www.w3.org/1999/xlink" x="0px" y="0px"
	 width="560px" height="115px" viewBox="0 0 560 115" enable-background="new 0 0 560 115" xml:space="preserve">
<path fill-rule="evenodd" clip-rule="evenodd" fill="#572381" d="M201.16,11.54c1.44,0,2.881,0,4.32,0c0,30.64,0,61.279,0,91.92
	c-1.439,0-2.88,0-4.32,0C201.16,72.819,201.16,42.18,201.16,11.54z M439.961,103.46c1.279,0,2.559,0,3.84,0
	c0.559-30.16,0.08-61.359,0.24-91.92c-1.441,0-2.881,0-4.32,0C439.881,42.101,439.4,73.3,439.961,103.46z M19.72,29.78
	c9.039,18.641,18.633,36.727,27.84,55.199c6.48,0,12.96,0,19.44,0c9.489-18.271,18.776-36.744,28.08-55.199
	c-5.761,0-11.521,0-17.28,0c-6.824,13.575-13.37,27.43-20.4,40.799c-6.29-11.549-12.274-24.182-18-35.76
	c-0.838-1.694-1.534-3.657-2.88-5.039C30.92,29.78,25.32,29.78,19.72,29.78z M95.8,30.5c0,18.159,0,36.319,0,54.479
	c10.741,0,21.545,0,32.88,0c10.648,0,23.702,1.348,30.24-2.881c6.696-4.33,6.72-13.582,6.72-24.959c0-8.361-0.134-16.494-3.12-20.88
	c-5.323-7.818-20.458-6.479-33.6-6.479c-11.609,0-22.029,0-32.88,0C95.76,29.82,95.78,30.159,95.8,30.5z M111.88,43.46
	c5.394,0,11.848,0,19.2,0c6.065,0,13.847-0.63,16.56,2.16c1.942,1.998,1.92,6.391,1.92,10.799c0,5.74,0.361,11.045-2.88,13.201
	c-3.392,2.256-11.858,1.199-17.04,1.199c-6.426,0-12.602,0-18,0C111.8,61.78,111.32,52.101,111.88,43.46z M169.24,30.5
	c0,18.159,0,36.319,0,54.479c5.28,0,10.561,0,15.841,0c0-18.4,0-36.801,0-55.199c-5.2,0-10.4,0-15.601,0
	C169.201,29.82,169.219,30.159,169.24,30.5z M217.48,29.78c-0.011,0.33,0.113,0.526,0.24,0.72
	c8.861,16.948,17.28,34.558,25.92,51.36c0.552,1.072,1.168,2.33,2.16,3.119c6.399,0,12.8,0,19.2,0
	c9.207-18.473,18.794-36.566,27.839-55.199c-5.68,0-11.359,0-17.04,0c-7.094,13.307-13.414,27.387-20.641,40.559
	c-6.401-11.615-12.117-24.059-18-35.759c-0.853-1.696-1.723-3.551-2.88-4.8C228.68,29.78,223.081,29.78,217.48,29.78z M293.561,30.5
	c0,18.159,0,36.319,0,54.479c9.92,0,20.893,0,32.641,0c10.66,0,23.391,1.229,30.238-2.641c7.043-3.977,6.961-13.645,6.961-24.719
	c0-8.729,0.287-18.018-4.08-22.801c-5.613-6.147-19.793-5.039-31.92-5.039c-12.008,0-23.201,0-33.6,0
	C293.521,29.82,293.539,30.159,293.561,30.5z M309.881,43.46c5.053,0,12.041,0,19.439,0c6.168,0,14.123-0.519,16.561,2.639
	c1.766,2.289,1.68,7.408,1.68,11.521c0,3.809,0.088,8.818-1.92,11.039c-2.787,3.082-10.943,2.16-17.041,2.16
	c-6.764,0-12.816,0-18.959,0c0-8.879,0-17.76,0-26.64C309.619,43.839,309.602,43.5,309.881,43.46z M367,30.5
	c0,18.159,0,36.319,0,54.479c19.279,0,38.561,0,57.84,0c0-4.4,0-8.801,0-13.199c-14,0-28,0-42,0c0.16-2.881-0.318-6.4,0.24-8.881
	c12.801,0,25.6,0,38.4,0c0-3.84,0-7.68,0-11.52c-12.881,0-25.76,0-38.641,0c0.16-2.881-0.318-6.399,0.24-8.88
	c13.6,0,27.199,0,40.801,0c0-4.24,0-8.48,0-12.72c-18.881,0-37.76,0-56.641,0C366.961,29.82,366.98,30.159,367,30.5z M460.359,30.5
	c0,18.159,0,36.319,0,54.479c5.281,0,10.561,0,15.84,0c0-18.4,0-36.801,0-55.199c-5.199,0-10.398,0-15.6,0
	C460.32,29.82,460.34,30.159,460.359,30.5z M479.561,30.5c0,4.319,0,8.64,0,12.96c7.359,0.16,15.359-0.32,22.32,0.24
	c0,13.76,0,27.52,0,41.279c5.359,0,10.719,0,16.08,0c0.158-13.76-0.32-28.16,0.238-41.52c7.361,0,14.721,0,22.08,0
	c0-4.561,0-9.12,0-13.68c-20.16,0-40.318,0-60.479,0C479.52,29.82,479.539,30.159,479.561,30.5z"/>
</svg>
