<?xml version="1.0" encoding="UTF-8" standalone="no"?>
<!-- Created with Inkscape (http://www.inkscape.org/) -->

<svg
   xmlns:dc="http://purl.org/dc/elements/1.1/"
   xmlns:cc="http://creativecommons.org/ns#"
   xmlns:rdf="http://www.w3.org/1999/02/22-rdf-syntax-ns#"
   xmlns:svg="http://www.w3.org/2000/svg"
   xmlns="http://www.w3.org/2000/svg"
   xmlns:sodipodi="http://sodipodi.sourceforge.net/DTD/sodipodi-0.dtd"
   xmlns:inkscape="http://www.inkscape.org/namespaces/inkscape"
   width="207.93668"
   height="131.57307"
   viewBox="0 0 207.93668 131.57308"
   id="svg2"
   version="1.1"
   inkscape:version="0.91 r13725"
   sodipodi:docname="login.svg">
  <defs
     id="defs4">
    <clipPath
       clipPathUnits="userSpaceOnUse"
       id="clipPath3837">
      <path
         d="m 687.23,446.526 44.652,0 0,-44.648 -44.652,0 0,44.648 z"
         id="path3839"
         inkscape:connector-curvature="0" />
    </clipPath>
    <clipPath
       clipPathUnits="userSpaceOnUse"
       id="clipPath3847">
      <path
         d="m 696,403 31,0 0,46 -31,0 0,-46 z"
         id="path3849"
         inkscape:connector-curvature="0" />
    </clipPath>
  </defs>
  <sodipodi:namedview
     id="base"
     pagecolor="#ffffff"
     bordercolor="#666666"
     borderopacity="1.0"
     inkscape:pageopacity="0.0"
     inkscape:pageshadow="2"
     inkscape:zoom="1.979899"
     inkscape:cx="80.612172"
     inkscape:cy="26.521607"
     inkscape:document-units="px"
     inkscape:current-layer="g4468"
     showgrid="true"
     units="px"
     inkscape:snap-bbox="true"
     inkscape:object-paths="true"
     inkscape:object-nodes="true"
     showguides="false"
     fit-margin-top="5"
     fit-margin-left="5"
     fit-margin-right="5"
     fit-margin-bottom="5"
     inkscape:window-width="1680"
     inkscape:window-height="987"
     inkscape:window-x="-8"
     inkscape:window-y="22"
     inkscape:window-maximized="1">
    <inkscape:grid
       type="xygrid"
       id="grid4212"
       originx="1.897655"
       originy="0.78653358" />
  </sodipodi:namedview>
  <metadata
     id="metadata7">
    <rdf:RDF>
      <cc:Work
         rdf:about="">
        <dc:format>image/svg+xml</dc:format>
        <dc:type
           rdf:resource="http://purl.org/dc/dcmitype/StillImage" />
        <dc:title></dc:title>
      </cc:Work>
    </rdf:RDF>
  </metadata>
  <g
     inkscape:label="Ebene 1"
     inkscape:groupmode="layer"
     id="layer1"
     transform="translate(-3.8182902,-865.6772)">
    <g
       id="g4468">
      <flowRoot
         transform="translate(5.7159452,905.8621)"
         style="font-style:normal;font-weight:normal;font-size:10px;line-height:125%;font-family:sans-serif;text-align:center;letter-spacing:0px;word-spacing:0px;text-anchor:middle;fill:#000000;fill-opacity:1;stroke:none;stroke-width:1px;stroke-linecap:butt;stroke-linejoin:miter;stroke-opacity:1"
         id="flowRoot4532"
         xml:space="preserve"><flowRegion
           id="flowRegion4534"><rect
             y="-13.499937"
             x="-5.7159452"
             height="115"
             width="115"
             id="rect4536" /></flowRegion><flowPara
           id="flowPara4538" /></flowRoot>      <rect
         style="opacity:0.98000004;fill:none;fill-opacity:1;stroke:#808080;stroke-width:1.57309067;stroke-linecap:round;stroke-linejoin:round;stroke-miterlimit:4;stroke-dasharray:none;stroke-dashoffset:0;stroke-opacity:1"
         id="rect4214"
         width="196.36359"
         height="119.99998"
         x="9.6048355"
         y="871.46375"
         ry="9.5455036" />
      <rect
         style="opacity:0.98000004;fill:#cccccc;fill-opacity:1;stroke:#000000;stroke-width:2.48509073;stroke-linecap:round;stroke-linejoin:round;stroke-miterlimit:4;stroke-dasharray:none;stroke-dashoffset:0;stroke-opacity:1"
         id="rect4214-7"
         width="152.72723"
         height="32.727276"
         x="31.42301"
         y="893.28198"
         ry="6.5047021" />
      <rect
         style="opacity:0.98000004;fill:#cccccc;fill-opacity:1;stroke:#000000;stroke-width:2.48509073;stroke-linecap:round;stroke-linejoin:round;stroke-miterlimit:4;stroke-dasharray:none;stroke-dashoffset:0;stroke-opacity:1"
         id="rect4214-7-1"
         width="152.72723"
         height="32.727276"
         x="31.42301"
         y="936.91833"
         ry="6.5047021" />
      <path
         id="path4267"
         d="m 50.74262,950.94429 -1.67116,0 0,-2.22819 c 0,-2.68964 -1.239444,-4.27074 -3.713687,-4.27074 -2.475173,0 -3.713688,1.5811 -3.713688,4.27074 l 0,2.22819 -1.856843,0 c -0.513418,0 -0.928422,0.59979 -0.928422,1.11318 l 0,7.24265 c 0,0.50969 0.397366,1.05745 0.882929,1.21343 l 1.111322,0.3593 c 0.486494,0.15513 1.301646,0.28411 1.812279,0.28411 l 5.384845,0 c 0.509704,0 1.325786,-0.12911 1.811351,-0.28504 l 1.110395,-0.3593 c 0.486491,-0.15513 0.884785,-0.70281 0.884785,-1.2125 l 0,-7.24265 c 0,-0.51339 -0.601619,-1.11318 -1.114106,-1.11318 z m -3.528004,0 -3.713687,0 0,-2.60049 c 0,-1.34156 0.739952,-2.0416 1.856844,-2.0416 1.116891,0 1.856843,0.70004 1.856843,2.0416 l 0,2.60049 z"
         inkscape:connector-curvature="0" />
      <path
         id="path4277"
         d="m 44.290033,901.71895 c -0.943276,0.70188 -1.196735,1.8132 -1.150312,2.40462 0.0594,0.72323 0.206108,1.66465 0.206108,1.66465 0,0 -0.290596,0.15783 -0.290596,0.79286 0.101201,1.59411 0.634112,0.90615 0.743666,1.60525 0.263669,1.68416 0.866216,1.38429 0.866216,2.30342 0,1.53098 -0.631326,2.24677 -2.602365,3.09535 -1.977539,0.8523 -4.016353,1.92461 -4.016353,3.78145 l 0,0.92843 16.711591,0 0,-0.92843 c 0,-1.85684 -2.039741,-2.92915 -4.018208,-3.78051 -1.971041,-0.84859 -2.600509,-1.56347 -2.600509,-3.09538 0,-0.91913 0.600688,-0.61923 0.865288,-2.30339 0.110479,-0.69911 0.64247,-0.01 0.745522,-1.60525 0,-0.63504 -0.291522,-0.79289 -0.291522,-0.79289 0,0 0.146684,-0.9414 0.205176,-1.66463 0.06036,-0.75853 -0.369513,-2.37772 -2.135371,-2.87442 -0.309165,-0.31565 -0.518059,-0.81793 0.432645,-1.32206 -2.079665,-0.0974 -2.563372,0.99063 -3.670981,1.79093 z"
         inkscape:connector-curvature="0" />
    </g>
  </g>
</svg>
